<svg width="48" height="48" viewBox="0 0 48 48" fill="none" xmlns="http://www.w3.org/2000/svg">
<rect width="48" height="48" rx="4" fill="url(#paint0_linear_1903_193)"/>
<rect width="48" height="48" rx="4" fill="white" fill-opacity="0.8"/>
<mask id="path-2-outside-1_1903_193" maskUnits="userSpaceOnUse" x="16" y="15" width="16" height="18" fill="black">
<rect fill="white" x="16" y="15" width="16" height="18"/>
<path d="M20.7891 26.8785C20.7891 26.0733 20.9605 25.3577 21.3035 24.7314C21.6613 24.1052 22.1682 23.4045 22.8243 22.6291C23.3759 21.9731 23.786 21.414 24.0543 20.9518C24.3376 20.4896 24.4793 19.9976 24.4793 19.4757C24.4793 18.9986 24.3227 18.6109 24.0096 18.3127C23.6965 18.0145 23.2641 17.8654 22.7125 17.8654C21.9968 17.8654 21.3631 18.0742 20.8114 18.4917C20.2598 18.8942 19.8199 19.3788 19.4919 19.9454C19.1788 20.5119 18.985 21.0412 18.9104 21.5333H17.5462C17.8295 19.8783 18.5451 18.5811 19.6932 17.6418C20.8413 16.6876 22.3993 16.2104 24.3674 16.2104C25.426 16.2104 26.4101 16.3894 27.3196 16.7472C28.244 17.105 28.9895 17.6493 29.5561 18.3798C30.1376 19.1104 30.4283 20.005 30.4283 21.0636C30.4283 21.8538 30.2643 22.5248 29.9363 23.0764C29.6083 23.6132 29.1386 24.2021 28.5273 24.8433C28.1098 25.2756 27.7893 25.6409 27.5656 25.9391C27.3569 26.2224 27.2227 26.5355 27.163 26.8785H20.7891ZM23.9872 32.1118C21.8104 32.1118 20.722 31.3962 20.722 29.9648C20.722 28.5484 21.8104 27.8401 23.9872 27.8401C26.1492 27.8401 27.2301 28.5484 27.2301 29.9648C27.2301 31.3962 26.1492 32.1118 23.9872 32.1118Z"/>
</mask>
<path d="M20.7891 26.8785C20.7891 26.0733 20.9605 25.3577 21.3035 24.7314C21.6613 24.1052 22.1682 23.4045 22.8243 22.6291C23.3759 21.9731 23.786 21.414 24.0543 20.9518C24.3376 20.4896 24.4793 19.9976 24.4793 19.4757C24.4793 18.9986 24.3227 18.6109 24.0096 18.3127C23.6965 18.0145 23.2641 17.8654 22.7125 17.8654C21.9968 17.8654 21.3631 18.0742 20.8114 18.4917C20.2598 18.8942 19.8199 19.3788 19.4919 19.9454C19.1788 20.5119 18.985 21.0412 18.9104 21.5333H17.5462C17.8295 19.8783 18.5451 18.5811 19.6932 17.6418C20.8413 16.6876 22.3993 16.2104 24.3674 16.2104C25.426 16.2104 26.4101 16.3894 27.3196 16.7472C28.244 17.105 28.9895 17.6493 29.5561 18.3798C30.1376 19.1104 30.4283 20.005 30.4283 21.0636C30.4283 21.8538 30.2643 22.5248 29.9363 23.0764C29.6083 23.6132 29.1386 24.2021 28.5273 24.8433C28.1098 25.2756 27.7893 25.6409 27.5656 25.9391C27.3569 26.2224 27.2227 26.5355 27.163 26.8785H20.7891ZM23.9872 32.1118C21.8104 32.1118 20.722 31.3962 20.722 29.9648C20.722 28.5484 21.8104 27.8401 23.9872 27.8401C26.1492 27.8401 27.2301 28.5484 27.2301 29.9648C27.2301 31.3962 26.1492 32.1118 23.9872 32.1118Z" fill="#8A9CB8"/>
<path d="M20.7891 26.8785C20.7891 26.0733 20.9605 25.3577 21.3035 24.7314C21.6613 24.1052 22.1682 23.4045 22.8243 22.6291C23.3759 21.9731 23.786 21.414 24.0543 20.9518C24.3376 20.4896 24.4793 19.9976 24.4793 19.4757C24.4793 18.9986 24.3227 18.6109 24.0096 18.3127C23.6965 18.0145 23.2641 17.8654 22.7125 17.8654C21.9968 17.8654 21.3631 18.0742 20.8114 18.4917C20.2598 18.8942 19.8199 19.3788 19.4919 19.9454C19.1788 20.5119 18.985 21.0412 18.9104 21.5333H17.5462C17.8295 19.8783 18.5451 18.5811 19.6932 17.6418C20.8413 16.6876 22.3993 16.2104 24.3674 16.2104C25.426 16.2104 26.4101 16.3894 27.3196 16.7472C28.244 17.105 28.9895 17.6493 29.5561 18.3798C30.1376 19.1104 30.4283 20.005 30.4283 21.0636C30.4283 21.8538 30.2643 22.5248 29.9363 23.0764C29.6083 23.6132 29.1386 24.2021 28.5273 24.8433C28.1098 25.2756 27.7893 25.6409 27.5656 25.9391C27.3569 26.2224 27.2227 26.5355 27.163 26.8785H20.7891ZM23.9872 32.1118C21.8104 32.1118 20.722 31.3962 20.722 29.9648C20.722 28.5484 21.8104 27.8401 23.9872 27.8401C26.1492 27.8401 27.2301 28.5484 27.2301 29.9648C27.2301 31.3962 26.1492 32.1118 23.9872 32.1118Z" fill="url(#paint1_linear_1903_193)"/>
<path d="M20.7891 26.8785H20.1678V27.4997H20.7891V26.8785ZM21.3035 24.7314L20.764 24.4232L20.7586 24.433L21.3035 24.7314ZM22.8243 22.6291L23.2985 23.0304L23.2998 23.029L22.8243 22.6291ZM24.0543 20.9518L23.5247 20.6271L23.5208 20.6334L23.5171 20.6398L24.0543 20.9518ZM24.0096 18.3127L24.4381 17.8629L24.4381 17.8629L24.0096 18.3127ZM20.8114 18.4917L21.1777 18.9936L21.1863 18.987L20.8114 18.4917ZM19.4919 19.9454L18.9542 19.634L18.9482 19.6449L19.4919 19.9454ZM18.9104 21.5333V22.1545H19.4446L19.5247 21.6263L18.9104 21.5333ZM17.5462 21.5333L16.9338 21.4285L16.8096 22.1545H17.5462V21.5333ZM19.6932 17.6418L20.0866 18.1226L20.0903 18.1196L19.6932 17.6418ZM27.3196 16.7472L27.0921 17.3253L27.0953 17.3266L27.3196 16.7472ZM29.5561 18.3798L29.0651 18.7606L29.07 18.7667L29.5561 18.3798ZM29.9363 23.0764L30.4664 23.4004L30.4703 23.3939L29.9363 23.0764ZM28.5273 24.8433L28.9742 25.2748L28.9769 25.272L28.5273 24.8433ZM27.5656 25.9391L27.0686 25.5664L27.0655 25.5706L27.5656 25.9391ZM27.163 26.8785V27.4997H27.6856L27.7751 26.9849L27.163 26.8785ZM21.4103 26.8785C21.4103 26.1641 21.5616 25.5534 21.8484 25.0298L20.7586 24.433C20.3594 25.1619 20.1678 25.9826 20.1678 26.8785H21.4103ZM21.8429 25.0397C22.176 24.4567 22.6579 23.7875 23.2985 23.0304L22.35 22.2279C21.6785 23.0214 21.1466 23.7538 20.7641 24.4232L21.8429 25.0397ZM23.2998 23.029C23.8625 22.3598 24.2978 21.7698 24.5916 21.2637L23.5171 20.6398C23.2742 21.0582 22.8894 21.5865 22.3488 22.2293L23.2998 23.029ZM24.584 21.2764C24.9247 20.7205 25.1005 20.1167 25.1005 19.4757H23.858C23.858 19.8784 23.7505 20.2587 23.5247 20.6271L24.584 21.2764ZM25.1005 19.4757C25.1005 18.848 24.8877 18.2911 24.4381 17.8629L23.5812 18.7626C23.7577 18.9308 23.858 19.1492 23.858 19.4757H25.1005ZM24.4381 17.8629C23.98 17.4267 23.3778 17.2442 22.7125 17.2442V18.4867C23.1504 18.4867 23.413 18.6024 23.5812 18.7626L24.4381 17.8629ZM22.7125 17.2442C21.8665 17.2442 21.1001 17.4942 20.4366 17.9963L21.1863 18.987C21.6261 18.6542 22.1271 18.4867 22.7125 18.4867V17.2442ZM20.4452 17.9898C19.8269 18.4411 19.3274 18.9896 18.9543 19.6341L20.0296 20.2566C20.3124 19.768 20.6927 19.3474 21.1776 18.9935L20.4452 17.9898ZM18.9482 19.6449C18.6096 20.2575 18.3845 20.8572 18.2962 21.4402L19.5247 21.6263C19.5854 21.2253 19.748 20.7664 20.0357 20.2459L18.9482 19.6449ZM18.9104 20.912H17.5462V22.1545H18.9104V20.912ZM18.1585 21.6381C18.4201 20.1099 19.0698 18.9545 20.0866 18.1226L19.2998 17.161C18.0205 18.2077 17.2388 19.6466 16.9338 21.4285L18.1585 21.6381ZM20.0903 18.1196C21.0955 17.284 22.4978 16.8317 24.3674 16.8317V15.5892C22.3009 15.5892 20.587 16.0911 19.2961 17.164L20.0903 18.1196ZM24.3674 16.8317C25.3547 16.8317 26.2609 16.9983 27.0921 17.3253L27.5471 16.1691C26.5593 15.7805 25.4974 15.5892 24.3674 15.5892V16.8317ZM27.0953 17.3266C27.9224 17.6467 28.5728 18.1256 29.0652 18.7605L30.047 17.9991C29.4062 17.1729 28.5657 16.5634 27.5439 16.1679L27.0953 17.3266ZM29.07 18.7667C29.5524 19.3728 29.8071 20.1257 29.8071 21.0636H31.0496C31.0496 19.8843 30.7227 18.8481 30.0422 17.993L29.07 18.7667ZM29.8071 21.0636C29.8071 21.7678 29.6613 22.3233 29.4023 22.7589L30.4703 23.3939C30.8672 22.7263 31.0496 21.9399 31.0496 21.0636H29.8071ZM29.4062 22.7525C29.1084 23.2398 28.6698 23.7935 28.0777 24.4146L28.9769 25.272C29.6074 24.6107 30.1081 23.9866 30.4664 23.4004L29.4062 22.7525ZM28.0804 24.4117C27.6544 24.8529 27.3141 25.239 27.0686 25.5664L28.0626 26.3119C28.2644 26.0428 28.5652 25.6984 28.9742 25.2748L28.0804 24.4117ZM27.0655 25.5706C26.8003 25.9305 26.6273 26.3332 26.551 26.772L27.7751 26.9849C27.8181 26.7379 27.9135 26.5143 28.0658 26.3077L27.0655 25.5706ZM27.163 26.2572H20.7891V27.4997H27.163V26.2572ZM23.9872 31.4906C22.9472 31.4906 22.2751 31.316 21.8796 31.056C21.5296 30.8258 21.3432 30.4958 21.3432 29.9648H20.1007C20.1007 30.8651 20.4586 31.6086 21.197 32.0942C21.8899 32.5498 22.8505 32.7331 23.9872 32.7331V31.4906ZM21.3432 29.9648C21.3432 29.4441 21.5273 29.1197 21.8771 28.892C22.2732 28.6343 22.9464 28.4614 23.9872 28.4614V27.2189C22.8513 27.2189 21.8918 27.4001 21.1995 27.8506C20.4609 28.3312 20.1007 29.0691 20.1007 29.9648H21.3432ZM23.9872 28.4614C25.0202 28.4614 25.687 28.6342 26.079 28.891C26.4252 29.1178 26.6089 29.4422 26.6089 29.9648H27.8514C27.8514 29.0709 27.4946 28.3331 26.7599 27.8517C26.0709 27.4002 25.1163 27.2189 23.9872 27.2189V28.4614ZM26.6089 29.9648C26.6089 30.4977 26.4229 30.8277 26.0765 31.0571C25.6851 31.3162 25.0193 31.4906 23.9872 31.4906V32.7331C25.1171 32.7331 26.0728 32.5496 26.7624 32.0931C27.497 31.6067 27.8514 30.8633 27.8514 29.9648H26.6089Z" fill="#497CFF" mask="url(#path-2-outside-1_1903_193)"/>
<defs>
<linearGradient id="paint0_linear_1903_193" x1="32.1606" y1="21.3333" x2="-12.0887" y2="52.5584" gradientUnits="userSpaceOnUse">
<stop stop-color="#001AFF"/>
<stop offset="1" stop-color="#4F95FF"/>
</linearGradient>
<linearGradient id="paint1_linear_1903_193" x1="26.3802" y1="23.1111" x2="12.3836" y2="31.7533" gradientUnits="userSpaceOnUse">
<stop stop-color="#001AFF"/>
<stop offset="1" stop-color="#4F95FF"/>
</linearGradient>
</defs>
</svg>
