<svg width="25" height="24" viewBox="0 0 25 24" fill="none" xmlns="http://www.w3.org/2000/svg">
<g id="Icon">
<path id="Icon color" d="M20.3501 7.25012L9.7501 17.8501C9.65621 17.9448 9.52842 17.998 9.3951 17.998C9.26178 17.998 9.13398 17.9448 9.0401 17.8501L3.6501 12.4601C3.55544 12.3662 3.5022 12.2384 3.5022 12.1051C3.5022 11.9718 3.55544 11.844 3.6501 11.7501L4.3501 11.0501C4.44398 10.9555 4.57178 10.9022 4.7051 10.9022C4.83842 10.9022 4.96621 10.9555 5.0601 11.0501L9.3901 15.3801L18.9401 5.83012C19.1379 5.63833 19.4523 5.63833 19.6501 5.83012L20.3501 6.54012C20.4448 6.634 20.498 6.7618 20.498 6.89512C20.498 7.02844 20.4448 7.15623 20.3501 7.25012Z" fill="#FFFEFE"/>
</g>
</svg>
