<svg width="76" height="60" viewBox="0 0 76 60" fill="none" xmlns="http://www.w3.org/2000/svg">
<path d="M54.8471 6.96347C54.2169 6.82446 50.1881 9.75235 49.4515 9.51964C48.7149 9.28692 48.2444 6.20498 47.3984 6.06158C46.5523 5.91818 44.2206 8.04487 43.2862 8.27784C42.3518 8.51081 39.2603 6.40338 37.9386 6.73293C36.6168 7.06248 32.2819 11.0215 31.4193 11.2366C30.5566 11.4517 26.3368 9.62558 25.1372 9.92467C23.9376 10.2238 20.1967 14.0347 19.1785 14.2886C18.1604 14.5424 10.9073 14.5522 10.3959 15.2873C9.88442 16.0225 11.2366 18.7426 10.6737 19.188C10.1108 19.6335 5.27083 21.4414 5.25313 22.1275C5.23543 22.8136 8.91925 24.4999 9.01154 25.2597C9.10383 26.0195 4.075 33.0426 4.52136 34.3191C4.96772 35.5957 12.4915 36.1748 12.8814 36.8002C13.2713 37.4257 11.9318 45.5879 12.3872 46.093C12.8425 46.5981 18.8254 43.4936 19.1364 43.9746C19.4474 44.4556 20.3348 50.7528 21.3742 50.9596C22.4137 51.1664 27.467 47.5316 28.3833 47.6241C29.2995 47.7165 29.9874 54.0578 30.8783 54.0487C31.7693 54.0395 33.8465 51.1717 34.5706 50.9446C35.2948 50.7175 38.6813 51.1107 39.5222 50.901C40.3632 50.6913 43.4956 46.5359 43.4956 46.5359C43.4956 46.5359 47.8384 48.8275 49.0532 48.5247C50.2679 48.2218 50.8067 45.6062 51.531 45.3264C51.9274 45.1732 57.4511 46.3809 58.5841 46.1484C59.7171 45.9158 62.7416 42.9116 63.2807 43.0916C64.4716 43.4894 70.0299 44.2871 70.6379 43.143C71.2459 41.9989 68.9593 38.4006 69.7774 37.3033C70.5956 36.2061 73.3998 33.9189 73.0737 32.6108C72.7475 31.3026 67.0749 26.4642 67.5895 25.3434C68.1041 24.2226 70.3246 21.5848 70.0916 20.6504C69.8586 19.716 64.8384 17.4939 64.6054 16.5595C64.3724 15.6251 66.4783 9.74062 65.4512 8.80571C64.4241 7.8708 56.9793 10.653 56.3411 10.4816C55.7029 10.3102 55.4772 7.10248 54.8471 6.96347Z" fill="white"/>
<path d="M49.4515 9.51964L49.304 9.98649L49.304 9.98649L49.4515 9.51964ZM54.8471 6.96347L54.7416 7.44157L54.8471 6.96347ZM65.4512 8.80571L65.7807 8.44364L65.7807 8.44364L65.4512 8.80571ZM67.5895 25.3434L68.0344 25.5477L68.0344 25.5477L67.5895 25.3434ZM69.7774 37.3033L69.3849 37.0107L69.7774 37.3033ZM70.6379 43.143L70.2056 42.9132L70.2056 42.9132L70.6379 43.143ZM63.2807 43.0916L63.1256 43.556L63.1256 43.556L63.2807 43.0916ZM51.531 45.3264L51.7074 45.7831L51.531 45.3264ZM43.4956 46.5359L43.1046 46.2412C43.2492 46.0493 43.5116 45.9908 43.7241 46.1029L43.4956 46.5359ZM34.5706 50.9446L34.7171 51.4118L34.7171 51.4118L34.5706 50.9446ZM30.8783 54.0487L30.8833 54.5382L30.8783 54.0487ZM28.3833 47.6241L28.3341 48.1112L28.3833 47.6241ZM12.3872 46.093L12.7508 45.7652L12.3872 46.093ZM12.8814 36.8002L12.4659 37.0592L12.8814 36.8002ZM9.01154 25.2597L8.52551 25.3187L8.52551 25.3187L9.01154 25.2597ZM5.25313 22.1275L4.7637 22.1149L5.25313 22.1275ZM10.6737 19.188L10.9775 19.572L10.9775 19.572L10.6737 19.188ZM10.3959 15.2873L9.99398 15.0077L10.3959 15.2873ZM47.3984 6.06158L47.4802 5.57887L47.3984 6.06158ZM49.599 9.05279C49.551 9.03764 49.5312 9.0462 49.5668 9.04183C49.597 9.0381 49.6474 9.0275 49.7214 9.00411C49.8696 8.95723 50.065 8.8745 50.302 8.75884C50.7745 8.52836 51.3517 8.19761 51.943 7.85353C52.5259 7.51432 53.1241 7.16122 53.6139 6.90364C53.8583 6.77506 54.0899 6.66266 54.2883 6.58614C54.3874 6.54796 54.4896 6.51418 54.5883 6.49306C54.6775 6.47399 54.8115 6.45427 54.9525 6.48537L54.7416 7.44157C54.8038 7.4553 54.8325 7.44217 54.7931 7.4506C54.7633 7.45698 54.7136 7.47163 54.6407 7.49974C54.4953 7.55583 54.303 7.64755 54.0697 7.77027C53.6038 8.0153 53.0306 8.35357 52.4355 8.69986C51.8487 9.04129 51.2412 9.39019 50.7314 9.63889C50.4773 9.76283 50.2321 9.86957 50.0166 9.93773C49.9087 9.97185 49.7964 10.0002 49.6864 10.0137C49.5817 10.0266 49.444 10.0307 49.304 9.98649L49.599 9.05279ZM54.9525 6.48537C55.219 6.54415 55.3832 6.74099 55.4731 6.87551C55.572 7.02347 55.6506 7.20204 55.7157 7.37752C55.8463 7.72975 55.96 8.17707 56.0654 8.58914C56.1749 9.01757 56.2762 9.41144 56.3863 9.70956C56.4415 9.85902 56.49 9.9592 56.5289 10.0184C56.5762 10.0905 56.5643 10.0346 56.468 10.0088L56.2141 10.9545C55.9584 10.8858 55.7998 10.6921 55.7101 10.5555C55.612 10.4059 55.5333 10.2263 55.4677 10.0488C55.3363 9.69288 55.2221 9.24399 55.1167 8.83169C55.0071 8.40301 54.9065 8.01162 54.7976 7.71794C54.7429 7.57047 54.6955 7.47428 54.659 7.41954C54.6134 7.35137 54.6327 7.41755 54.7416 7.44157L54.9525 6.48537ZM56.468 10.0088C56.4077 9.99256 56.3894 10.0054 56.4792 9.99462C56.5469 9.98652 56.6431 9.96948 56.7698 9.94199C57.0222 9.88724 57.3582 9.79942 57.7589 9.68867C58.5451 9.4714 59.592 9.16221 60.623 8.88457C61.6605 8.60517 62.7302 8.34405 63.6122 8.21298C64.0517 8.14765 64.4646 8.11144 64.8132 8.12723C65.134 8.14177 65.5167 8.20336 65.7807 8.44364L65.1216 9.16777C65.1288 9.17433 65.0542 9.11835 64.7688 9.10542C64.5111 9.09374 64.1689 9.12017 63.7561 9.18152C62.9334 9.3038 61.9094 9.55223 60.8776 9.83008C59.8392 10.1097 58.8411 10.4055 58.0198 10.6325C57.6168 10.7438 57.2584 10.838 56.9774 10.8989C56.8375 10.9293 56.7073 10.9535 56.5954 10.9669C56.5055 10.9776 56.3542 10.9921 56.2141 10.9545L56.468 10.0088ZM65.7807 8.44364C66.03 8.67058 66.1354 8.99637 66.1834 9.2901C66.2332 9.59543 66.2339 9.94807 66.2079 10.3148C66.1559 11.0498 65.9897 11.9313 65.8046 12.7864C65.7115 13.2164 65.6123 13.6459 65.5185 14.0522C65.4243 14.4601 65.3358 14.8433 65.2626 15.1873C65.189 15.5326 65.1331 15.8278 65.1024 16.0605C65.087 16.1767 65.079 16.2698 65.0772 16.341C65.0753 16.4178 65.0814 16.4449 65.0805 16.4411L64.1304 16.678C64.0761 16.4602 64.0989 16.1802 64.1316 15.9324C64.1674 15.6608 64.2298 15.3356 64.3049 14.9833C64.3802 14.6295 64.4707 14.2377 64.5644 13.8319C64.6585 13.4245 64.7562 13.0016 64.8476 12.5792C65.0315 11.7295 65.1845 10.9062 65.2312 10.2457C65.2546 9.9147 65.2495 9.64692 65.217 9.44785C65.1826 9.23717 65.1291 9.17456 65.1216 9.16777L65.7807 8.44364ZM65.0805 16.4411C65.073 16.4113 65.0829 16.4652 65.2357 16.6103C65.3698 16.7377 65.5631 16.8887 65.8086 17.0602C66.2989 17.4028 66.9393 17.7879 67.6007 18.1853C68.2526 18.577 68.9255 18.981 69.4493 19.3471C69.7109 19.5299 69.9498 19.7131 70.1357 19.8897C70.303 20.0486 70.501 20.2686 70.5666 20.5319L69.6165 20.7688C69.624 20.7986 69.6141 20.7447 69.4613 20.5996C69.3272 20.4722 69.1339 20.3212 68.8884 20.1497C68.3981 19.8071 67.7577 19.422 67.0963 19.0246C66.4444 18.6329 65.7715 18.2289 65.2477 17.8628C64.9861 17.68 64.7472 17.4968 64.5613 17.3202C64.394 17.1613 64.196 16.9413 64.1304 16.678L65.0805 16.4411ZM70.5666 20.5319C70.6227 20.7568 70.5964 20.9882 70.5481 21.1889C70.4984 21.3954 70.4148 21.6116 70.3156 21.826C70.1172 22.2543 69.8302 22.73 69.5325 23.1922C69.2367 23.6512 68.9076 24.1313 68.6389 24.5384C68.3594 24.9619 68.145 25.3068 68.0344 25.5477L67.1446 25.1392C67.2912 24.8197 67.5474 24.4146 67.8217 23.999C68.1068 23.5671 68.4147 23.1192 68.7093 22.6619C69.0019 22.2076 69.2584 21.7786 69.427 21.4146C69.5112 21.2327 69.5669 21.0808 69.5961 20.9597C69.6266 20.833 69.6187 20.7775 69.6165 20.7688L70.5666 20.5319ZM68.0344 25.5477C68.0646 25.4821 68.0139 25.5032 68.1122 25.7267C68.1973 25.9202 68.3534 26.1726 68.5779 26.4778C69.0243 27.0848 69.6779 27.8172 70.3763 28.575C71.0659 29.3233 71.8005 30.0976 72.3762 30.7597C72.665 31.0918 72.9231 31.4061 73.1218 31.6845C73.3098 31.9479 73.4837 32.2316 73.5487 32.4923L72.5986 32.7292C72.5821 32.6629 72.5074 32.5092 72.3247 32.2533C72.1528 32.0123 71.9182 31.7253 71.6373 31.4022C71.0739 30.7542 70.3612 30.0036 69.6563 29.2386C68.9601 28.4832 68.2717 27.7142 67.789 27.0579C67.5489 26.7314 67.3438 26.4117 67.2159 26.121C67.1012 25.8602 66.9858 25.485 67.1446 25.1392L68.0344 25.5477ZM73.5487 32.4923C73.6765 33.005 73.4858 33.5335 73.2397 33.9785C72.9845 34.4399 72.6119 34.9137 72.2233 35.3584C71.8328 35.8051 71.4062 36.2446 71.037 36.6299C70.6581 37.0254 70.3527 37.3509 70.1699 37.596L69.3849 37.0107C69.6112 36.7072 69.9631 36.3353 70.33 35.9525C70.7065 35.5595 71.1139 35.1397 71.486 34.714C71.86 34.2861 72.1784 33.8743 72.3828 33.5046C72.5963 33.1186 72.6339 32.8707 72.5986 32.7292L73.5487 32.4923ZM70.1699 37.596C70.0987 37.6915 70.0462 37.9325 70.1344 38.4328C70.2169 38.9008 70.3947 39.4551 70.5933 40.0507C70.7862 40.629 70.9997 41.2492 71.1226 41.7946C71.1844 42.0693 71.2282 42.3448 71.2315 42.6022C71.2348 42.8563 71.1995 43.1295 71.0703 43.3727L70.2056 42.9132C70.2283 42.8705 70.2546 42.781 70.2524 42.615C70.2503 42.4523 70.2215 42.2504 70.1673 42.0098C70.058 41.5245 69.865 40.9619 69.6644 40.3605C69.4696 39.7763 69.2672 39.1538 69.1701 38.6028C69.0786 38.084 69.0471 37.4638 69.3849 37.0107L70.1699 37.596ZM71.0703 43.3727C70.9168 43.6615 70.641 43.8326 70.3814 43.9387C70.1139 44.0481 69.7957 44.1165 69.4614 44.1592C68.7908 44.2449 67.9659 44.238 67.1458 44.1841C65.5145 44.0768 63.7791 43.7743 63.1256 43.556L63.4358 42.6273C63.9732 42.8068 65.6124 43.102 67.21 43.207C68.0044 43.2592 68.7575 43.262 69.3373 43.1879C69.6282 43.1507 69.8533 43.0968 70.0108 43.0324C70.1762 42.9648 70.207 42.9105 70.2056 42.9132L71.0703 43.3727ZM51.7074 45.7831C51.7218 45.7776 51.6965 45.7836 51.6351 45.8539C51.5768 45.9206 51.5091 46.0182 51.4304 46.1511C51.2682 46.4249 51.1107 46.7568 50.9106 47.1424C50.7203 47.5092 50.4982 47.9096 50.2339 48.2415C49.9729 48.5694 49.6272 48.8861 49.1716 48.9997L48.9347 48.0496C49.0865 48.0118 49.2637 47.888 49.4679 47.6316C49.6689 47.3791 49.8547 47.0514 50.0414 46.6914C50.2184 46.3503 50.4073 45.9569 50.5878 45.6521C50.6804 45.4958 50.7832 45.3407 50.8977 45.2096C51.0091 45.0822 51.1591 44.9452 51.3545 44.8697L51.7074 45.7831ZM49.1716 48.9997C48.929 49.0602 48.6546 49.0479 48.3961 49.0108C48.129 48.9725 47.8347 48.901 47.5325 48.8109C46.9278 48.6307 46.2509 48.3641 45.6246 48.0932C44.9959 47.8215 44.4074 47.5407 43.9766 47.3283C43.761 47.222 43.5843 47.1325 43.4613 47.0695C43.3997 47.0379 43.3516 47.013 43.3186 46.9958C43.3021 46.9872 43.2894 46.9806 43.2808 46.9761C43.2764 46.9738 43.2731 46.972 43.2708 46.9708C43.2697 46.9702 43.2688 46.9698 43.2682 46.9694C43.2679 46.9693 43.2676 46.9692 43.2674 46.9691C43.2673 46.969 43.2673 46.969 43.2672 46.9689C43.2671 46.9689 43.2671 46.9689 43.4956 46.5359C43.7241 46.1029 43.7241 46.1029 43.7241 46.1029C43.7241 46.1029 43.7241 46.1029 43.7241 46.1029C43.7242 46.1029 43.7244 46.103 43.7246 46.1031C43.725 46.1034 43.7257 46.1037 43.7266 46.1042C43.7285 46.1052 43.7315 46.1067 43.7354 46.1088C43.7432 46.1129 43.7551 46.1191 43.7707 46.1272C43.8019 46.1435 43.8483 46.1675 43.9078 46.198C44.027 46.2591 44.1992 46.3463 44.4097 46.4501C44.8312 46.6579 45.4042 46.9312 46.0131 47.1945C46.6243 47.4587 47.2609 47.7082 47.8122 47.8725C48.088 47.9547 48.3322 48.0125 48.5351 48.0415C48.7466 48.0719 48.8736 48.0649 48.9347 48.0496L49.1716 48.9997ZM43.4956 46.5359C43.8865 46.8306 43.8865 46.8306 43.8865 46.8307C43.8864 46.8307 43.8864 46.8308 43.8863 46.8308C43.8862 46.831 43.8861 46.8312 43.8858 46.8315C43.8854 46.8321 43.8848 46.8329 43.884 46.8339C43.8824 46.836 43.8801 46.8391 43.877 46.8432C43.8709 46.8513 43.8619 46.8632 43.8501 46.8787C43.8266 46.9096 43.7922 46.9549 43.7481 47.0124C43.66 47.1275 43.5334 47.2919 43.3789 47.4898C43.0701 47.8851 42.6488 48.4155 42.2003 48.9534C41.753 49.4897 41.2727 50.0406 40.847 50.4737C40.6347 50.6897 40.4284 50.8842 40.2413 51.0347C40.0722 51.1708 39.8589 51.3217 39.6407 51.3761L39.4038 50.426C39.3958 50.4279 39.4643 50.4031 39.6275 50.2718C39.7727 50.155 39.9491 49.9903 40.1487 49.7873C40.5468 49.3823 41.0073 48.855 41.4483 48.3262C41.8879 47.799 42.3023 47.2774 42.6071 46.8871C42.7594 46.6921 42.8841 46.5302 42.9706 46.4172C43.0138 46.3608 43.0475 46.3165 43.0703 46.2865C43.0817 46.2715 43.0903 46.2601 43.0961 46.2524C43.099 46.2486 43.1012 46.2457 43.1026 46.2438C43.1033 46.2429 43.1038 46.2422 43.1042 46.2418C43.1043 46.2415 43.1045 46.2414 43.1045 46.2413C43.1046 46.2412 43.1046 46.2412 43.1046 46.2412C43.1046 46.2412 43.1046 46.2412 43.4956 46.5359ZM39.6407 51.3761C39.3604 51.4459 38.929 51.4577 38.4914 51.4539C38.0344 51.45 37.5005 51.4272 36.9821 51.4054C36.4586 51.3835 35.951 51.3627 35.5297 51.3611C35.3192 51.3603 35.1375 51.3643 34.9908 51.3745C34.8358 51.3853 34.7507 51.4012 34.7171 51.4118L34.4241 50.4774C34.5715 50.4312 34.7508 50.4097 34.9228 50.3977C35.1032 50.3851 35.3114 50.381 35.5334 50.3819C35.977 50.3836 36.5044 50.4054 37.0231 50.4271C37.547 50.4491 38.0626 50.471 38.4998 50.4748C38.9562 50.4787 39.2636 50.4609 39.4038 50.426L39.6407 51.3761ZM34.7171 51.4118C34.7224 51.4101 34.709 51.4139 34.6735 51.4354C34.6398 51.4559 34.5963 51.4861 34.5426 51.5282C34.4344 51.613 34.3044 51.7301 34.1542 51.8757C33.8514 52.1692 33.5085 52.5363 33.1391 52.9185C32.7786 53.2918 32.3959 53.6762 32.0411 53.9692C31.8636 54.1158 31.6808 54.25 31.5009 54.3499C31.3291 54.4454 31.1142 54.5359 30.8833 54.5382L30.8733 53.5591C30.8652 53.5592 30.9102 53.558 31.0253 53.494C31.1324 53.4345 31.2636 53.3414 31.4175 53.2143C31.7254 52.9599 32.0743 52.6115 32.4349 52.2382C32.7868 51.874 33.1546 51.481 33.4727 51.1726C33.6331 51.0172 33.7912 50.873 33.9386 50.7574C34.0759 50.6499 34.2452 50.5336 34.4241 50.4774L34.7171 51.4118ZM30.8833 54.5382C30.6731 54.5404 30.5081 54.4468 30.3969 54.3524C30.2878 54.2599 30.2026 54.1444 30.1355 54.0349C30.001 53.8155 29.8837 53.5274 29.7784 53.2206C29.5659 52.6015 29.3623 51.7834 29.1652 50.9929C28.9646 50.188 28.7701 49.4097 28.571 48.8263C28.4708 48.5325 28.3782 48.3153 28.2961 48.1771C28.255 48.108 28.228 48.0784 28.2197 48.0706C28.2111 48.0627 28.2499 48.1027 28.3341 48.1112L28.4324 47.1369C28.6312 47.157 28.7827 47.2573 28.8853 47.3525C28.9881 47.4478 29.0707 47.5639 29.1379 47.677C29.2723 47.9032 29.3907 48.1965 29.4977 48.5101C29.7132 49.1413 29.9182 49.9651 30.1153 50.756C30.3161 51.5612 30.5088 52.3325 30.7045 52.9027C30.8033 53.1906 30.893 53.3971 30.9703 53.5231C31.0091 53.5864 31.0309 53.6062 31.0302 53.6056C31.0274 53.6032 30.9722 53.5581 30.8733 53.5591L30.8833 54.5382ZM28.3341 48.1112C28.3574 48.1135 28.3466 48.1081 28.2816 48.1241C28.2231 48.1384 28.1437 48.1643 28.0417 48.2046C27.8377 48.2853 27.5789 48.4096 27.2751 48.5689C26.6676 48.8875 25.9294 49.3197 25.1699 49.7586C24.4181 50.1931 23.646 50.6336 22.9942 50.9525C22.6688 51.1116 22.36 51.2471 22.0904 51.3366C21.845 51.4179 21.5446 51.4927 21.2787 51.4398L21.4697 50.4794C21.4636 50.4782 21.5486 50.4846 21.7821 50.4072C21.9913 50.3378 22.2551 50.2239 22.5639 50.0729C23.1806 49.7712 23.924 49.3476 24.68 48.9108C25.4282 48.4784 26.1901 48.0322 26.8203 47.7017C27.1354 47.5365 27.4298 47.3936 27.6816 47.2941C27.8075 47.2442 27.9317 47.2017 28.0483 47.1731C28.1585 47.146 28.2945 47.123 28.4324 47.1369L28.3341 48.1112ZM21.2787 51.4398C20.9386 51.3721 20.7156 51.0941 20.5809 50.8851C20.4288 50.6491 20.2932 50.3467 20.1711 50.0199C19.9255 49.3625 19.7017 48.5159 19.5055 47.6821C19.3089 46.8463 19.1343 45.998 18.9926 45.3435C18.921 45.013 18.8585 44.7348 18.805 44.526C18.7781 44.4213 18.7552 44.3406 18.7362 44.2828C18.7128 44.2116 18.7072 44.2126 18.7253 44.2404L19.5476 43.7088C19.6044 43.7968 19.6422 43.9033 19.6665 43.9773C19.6952 44.0646 19.7242 44.1688 19.7535 44.2828C19.812 44.5112 19.878 44.8055 19.9496 45.1362C20.0942 45.8042 20.2647 46.6333 20.4587 47.4578C20.6532 48.2843 20.8656 49.0808 21.0884 49.6773C21.2005 49.9775 21.3073 50.2047 21.4039 50.3546C21.5178 50.5314 21.55 50.4954 21.4697 50.4794L21.2787 51.4398ZM18.7253 44.2404C18.7836 44.3307 18.8603 44.3747 18.9079 44.3939C18.9523 44.4118 18.9828 44.4133 18.9839 44.4133C18.9842 44.4133 18.9513 44.4128 18.8695 44.4288C18.7118 44.4595 18.4785 44.5294 18.1774 44.6355C17.5803 44.8459 16.8032 45.1671 16.0018 45.4958C15.2097 45.8207 14.3942 46.1529 13.7467 46.3714C13.4253 46.4798 13.124 46.5676 12.8779 46.6098C12.7565 46.6306 12.6242 46.6448 12.4983 46.6354C12.3892 46.6273 12.1802 46.5946 12.0235 46.4208L12.7508 45.7652C12.6511 45.6545 12.5422 45.6568 12.5709 45.6589C12.5828 45.6598 12.6261 45.6595 12.7125 45.6447C12.8819 45.6157 13.1252 45.5476 13.4336 45.4436C14.0457 45.237 14.8306 44.9179 15.6301 44.5899C16.4202 44.2658 17.2256 43.9326 17.852 43.7119C18.1626 43.6025 18.4513 43.5127 18.6821 43.4677C18.7945 43.4458 18.9225 43.4284 19.0449 43.436C19.1391 43.4419 19.3943 43.4717 19.5476 43.7088L18.7253 44.2404ZM12.0235 46.4208C11.9494 46.3386 11.9102 46.2489 11.8887 46.1886C11.8654 46.1235 11.8502 46.0571 11.8397 45.9964C11.8186 45.8754 11.8084 45.7351 11.8043 45.5882C11.7959 45.2922 11.8106 44.9113 11.8386 44.4839C11.8948 43.6264 12.0085 42.529 12.1228 41.4406C12.2378 40.3463 12.3535 39.2606 12.4164 38.409C12.4479 37.9823 12.4653 37.6255 12.4639 37.3611C12.4631 37.2282 12.4576 37.1296 12.4493 37.0625C12.4382 36.9737 12.429 36.9999 12.4659 37.0592L13.2969 36.5412C13.3826 36.6787 13.4086 36.842 13.421 36.9417C13.4361 37.0631 13.4422 37.2045 13.443 37.3556C13.4447 37.6593 13.425 38.0467 13.3929 38.4811C13.3286 39.3516 13.2109 40.4554 13.0967 41.5429C12.9818 42.6364 12.8704 43.7134 12.8157 44.5479C12.7882 44.9665 12.776 45.311 12.7831 45.5605C12.7866 45.6864 12.7948 45.7738 12.8043 45.8281C12.809 45.8552 12.8122 45.8633 12.8106 45.8588C12.8096 45.8559 12.8058 45.8458 12.7979 45.8311C12.7901 45.8167 12.7754 45.7925 12.7508 45.7652L12.0235 46.4208ZM12.4659 37.0592C12.5165 37.1403 12.5689 37.1515 12.5065 37.1198C12.4629 37.0977 12.3896 37.068 12.2791 37.0326C12.0598 36.9623 11.7521 36.8875 11.3721 36.8072C10.6092 36.6459 9.63847 36.4789 8.62993 36.2846C7.63654 36.0932 6.61766 35.8772 5.81416 35.6244C5.41378 35.4985 5.04551 35.3569 4.75395 35.194C4.48506 35.0438 4.17774 34.8197 4.0592 34.4807L4.98352 34.1575C4.97657 34.1377 5.00202 34.211 5.23153 34.3392C5.43839 34.4548 5.73419 34.5728 6.10802 34.6904C6.85296 34.9247 7.82307 35.132 8.81516 35.3231C9.7921 35.5113 10.8033 35.6861 11.5747 35.8492C11.9619 35.9311 12.3095 36.0141 12.578 36.1002C12.7114 36.1429 12.8401 36.1911 12.9498 36.2468C13.0407 36.2929 13.1976 36.382 13.2969 36.5412L12.4659 37.0592ZM4.0592 34.4807C3.99832 34.3066 3.99617 34.1242 4.01213 33.9662C4.02858 33.8031 4.06829 33.6297 4.12094 33.454C4.22616 33.1029 4.39796 32.6947 4.6061 32.2603C5.02345 31.3894 5.61705 30.352 6.21235 29.3462C6.81382 28.3301 7.41145 27.3552 7.86168 26.5722C8.08606 26.182 8.2656 25.8534 8.3851 25.6035C8.44517 25.4779 8.48496 25.3827 8.50768 25.3156C8.53768 25.227 8.51683 25.2472 8.52551 25.3187L9.49756 25.2006C9.51778 25.3671 9.46846 25.5312 9.43515 25.6296C9.39456 25.7495 9.33622 25.8843 9.26848 26.026C9.13238 26.3106 8.93767 26.6653 8.71054 27.0603C8.25777 27.8477 7.6434 28.8509 7.055 29.845C6.46042 30.8495 5.88627 31.8548 5.48914 32.6835C5.29005 33.0989 5.14292 33.4548 5.05892 33.7351C5.01696 33.8751 4.99448 33.9841 4.98636 34.0645C4.97774 34.15 4.98861 34.1721 4.98352 34.1575L4.0592 34.4807ZM8.52551 25.3187C8.5334 25.3836 8.55743 25.3707 8.46098 25.2649C8.37954 25.1755 8.25391 25.0648 8.0842 24.9342C7.74531 24.6733 7.29545 24.3815 6.82501 24.0769C6.36577 23.7796 5.88445 23.4685 5.52031 23.1867C5.33902 23.0464 5.16741 22.8988 5.03749 22.7505C4.92788 22.6254 4.75634 22.4 4.7637 22.1149L5.74256 22.1401C5.74549 22.0266 5.68521 22.0039 5.77402 22.1053C5.84254 22.1835 5.95654 22.2862 6.11957 22.4123C6.44405 22.6634 6.88613 22.95 7.35717 23.255C7.81701 23.5527 8.3043 23.8678 8.68153 24.1583C8.86987 24.3033 9.04704 24.4543 9.18466 24.6053C9.30726 24.7398 9.4666 24.9458 9.49756 25.2006L8.52551 25.3187ZM4.7637 22.1149C4.76838 21.9335 4.84851 21.7909 4.91272 21.7012C4.98062 21.6064 5.0655 21.5228 5.1492 21.451C5.31713 21.3069 5.539 21.161 5.78058 21.0192C6.26765 20.7333 6.91044 20.4207 7.55338 20.1232C8.19334 19.8271 8.8671 19.5308 9.38881 19.2932C9.65423 19.1723 9.88269 19.0656 10.0604 18.9765C10.1492 18.9319 10.2216 18.8936 10.2776 18.8617C10.3054 18.8458 10.3273 18.8326 10.3438 18.8219C10.352 18.8166 10.3583 18.8124 10.3629 18.8092C10.3652 18.8076 10.3669 18.8064 10.3681 18.8055C10.3687 18.805 10.3691 18.8047 10.3694 18.8045C10.3697 18.8042 10.3699 18.8041 10.3699 18.8041L10.9775 19.572C10.8619 19.6635 10.6803 19.761 10.4994 19.8517C10.3046 19.9494 10.0624 20.0624 9.79469 20.1843C9.25004 20.4324 8.60717 20.7145 7.96456 21.0119C7.32492 21.3078 6.71922 21.6037 6.27623 21.8637C6.05277 21.9948 5.88922 22.1062 5.78688 22.194C5.73545 22.2382 5.71397 22.2642 5.70876 22.2714C5.69985 22.2839 5.7401 22.2358 5.74256 22.1401L4.7637 22.1149ZM10.3699 18.8041C10.3022 18.8577 10.3093 18.9087 10.3183 18.8496C10.3266 18.7944 10.3273 18.6988 10.3097 18.5525C10.2745 18.2596 10.1831 17.8878 10.0787 17.4634C9.97856 17.0567 9.86721 16.6046 9.81692 16.2055C9.7916 16.0047 9.779 15.798 9.79643 15.6039C9.81351 15.4137 9.86273 15.1964 9.99398 15.0077L10.7978 15.5669C10.8012 15.5621 10.7808 15.5905 10.7717 15.6915C10.763 15.7887 10.7677 15.9186 10.7884 16.0831C10.8302 16.4147 10.9258 16.8083 11.0295 17.2293C11.1287 17.6325 11.2379 18.0701 11.2819 18.4355C11.3039 18.6183 11.3139 18.8141 11.2865 18.9958C11.2596 19.1736 11.1859 19.4071 10.9775 19.572L10.3699 18.8041ZM9.99398 15.0077C10.0957 14.8615 10.2411 14.7733 10.3496 14.7194C10.468 14.6605 10.6038 14.613 10.744 14.573C11.0252 14.4927 11.3801 14.4274 11.7724 14.372C12.5602 14.261 13.5626 14.182 14.5665 14.1188C15.5679 14.0559 16.5989 14.0071 17.4204 13.9596C17.8349 13.9356 18.1978 13.9118 18.4871 13.8865C18.7877 13.8601 18.9755 13.8346 19.0601 13.8135L19.297 14.7636C19.127 14.806 18.8655 14.8363 18.5726 14.8619C18.2683 14.8886 17.8935 14.913 17.4769 14.9371C16.6361 14.9858 15.631 15.033 14.6279 15.0961C13.6274 15.159 12.657 15.2362 11.9091 15.3416C11.5336 15.3946 11.23 15.4526 11.0127 15.5146C10.9036 15.5457 10.8302 15.574 10.7856 15.5961C10.7312 15.6232 10.76 15.6212 10.7978 15.5669L9.99398 15.0077ZM19.0601 13.8135C19.1052 13.8023 19.2184 13.7529 19.4141 13.6278C19.5981 13.5103 19.8191 13.3497 20.0703 13.1548C20.5731 12.7648 21.1643 12.2633 21.7743 11.7492C22.3788 11.2397 23.0009 10.7187 23.5486 10.306C23.8227 10.0995 24.0855 9.91451 24.324 9.7694C24.5542 9.6293 24.7951 9.50538 25.0188 9.44962L25.2556 10.3997C25.1794 10.4187 25.041 10.4793 24.833 10.6059C24.6333 10.7274 24.3991 10.8912 24.1379 11.088C23.615 11.482 23.0133 11.9856 22.4053 12.4979C21.8028 13.0057 21.1929 13.5232 20.6705 13.9285C20.409 14.1313 20.1614 14.3124 19.9413 14.453C19.7328 14.5862 19.5064 14.7114 19.297 14.7636L19.0601 13.8135ZM25.0188 9.44962C25.2469 9.39273 25.5076 9.39362 25.7601 9.41637C26.0198 9.43977 26.3082 9.49013 26.6077 9.55533C27.206 9.68559 27.8895 9.88424 28.5448 10.08C29.2087 10.2784 29.8402 10.4728 30.3632 10.6058C30.6241 10.6722 30.8452 10.7199 31.0204 10.7451C31.1078 10.7576 31.1767 10.7635 31.229 10.7645C31.2842 10.7656 31.3042 10.7607 31.3008 10.7616L31.5377 11.7117C31.3314 11.7631 31.0902 11.7443 30.8813 11.7143C30.656 11.682 30.3965 11.6247 30.1217 11.5548C29.5733 11.4153 28.9132 11.2121 28.2644 11.0182C27.6069 10.8218 26.9566 10.6334 26.3994 10.5121C26.1211 10.4515 25.8762 10.41 25.6722 10.3916C25.461 10.3726 25.3274 10.3818 25.2556 10.3997L25.0188 9.44962ZM31.3008 10.7616C31.2982 10.7622 31.3052 10.7606 31.3237 10.753C31.3416 10.7456 31.3655 10.7346 31.3961 10.7189C31.4578 10.6871 31.5357 10.6417 31.6302 10.5817C31.8192 10.4615 32.0536 10.296 32.3244 10.0952C32.8664 9.69334 33.5225 9.17428 34.2057 8.64159C34.8838 8.11289 35.5862 7.57278 36.2043 7.14334C36.5133 6.92859 36.8079 6.73695 37.0724 6.58659C37.3293 6.44058 37.5885 6.31563 37.8201 6.25788L38.057 7.20798C37.9582 7.23262 37.7928 7.30348 37.5562 7.4379C37.3274 7.56797 37.0596 7.74137 36.763 7.94749C36.1696 8.35978 35.4865 8.88465 34.8078 9.4138C34.1342 9.93895 33.4622 10.4706 32.9075 10.8818C32.63 11.0876 32.3738 11.2692 32.1555 11.408C31.9548 11.5356 31.7318 11.6633 31.5377 11.7117L31.3008 10.7616ZM37.8201 6.25788C38.288 6.14123 38.8396 6.24818 39.3415 6.39924C39.8622 6.55599 40.4255 6.79194 40.9521 7.01985C41.4908 7.253 41.9854 7.47497 42.4087 7.62793C42.6188 7.70385 42.795 7.75658 42.9368 7.78442C43.0871 7.81396 43.1541 7.80619 43.1678 7.80279L43.4047 8.75289C43.1847 8.80774 42.9507 8.78507 42.748 8.74524C42.5366 8.70371 42.3077 8.63259 42.0759 8.54885C41.6155 8.38249 41.0794 8.14188 40.5632 7.91849C40.0349 7.68986 39.5191 7.4753 39.0592 7.33687C38.5805 7.19276 38.25 7.15985 38.057 7.20798L37.8201 6.25788ZM43.1678 7.80279C43.3142 7.76627 43.5728 7.63318 43.9421 7.39941C44.2975 7.17447 44.6889 6.90087 45.1018 6.62258C45.5046 6.35107 45.9252 6.07715 46.3047 5.88009C46.4948 5.78139 46.688 5.69481 46.8737 5.63795C47.0527 5.58312 47.2664 5.54264 47.4802 5.57887L47.3165 6.54429C47.3188 6.54467 47.2745 6.53927 47.1604 6.57421C47.053 6.60711 46.918 6.66498 46.7559 6.74913C46.4311 6.91777 46.0517 7.1632 45.649 7.43456C45.2565 7.69914 44.8369 7.99193 44.4658 8.22679C44.1087 8.45282 43.7254 8.67292 43.4047 8.75289L43.1678 7.80279ZM47.4802 5.57887C47.7268 5.62068 47.9157 5.76144 48.0511 5.90132C48.1878 6.04261 48.3025 6.21634 48.4 6.39101C48.5942 6.73894 48.7671 7.17753 48.9227 7.58086C49.0849 8.00112 49.2293 8.38531 49.3774 8.68348C49.4509 8.83149 49.5153 8.93701 49.5696 9.00525C49.6291 9.07998 49.642 9.06638 49.599 9.05279L49.304 9.98649C49.0769 9.91472 48.914 9.75391 48.8034 9.61499C48.6877 9.46958 48.5878 9.29502 48.5005 9.11914C48.3268 8.7695 48.1625 8.33062 48.0092 7.93337C47.8494 7.5192 47.7 7.14587 47.545 6.86833C47.4679 6.73027 47.4013 6.63788 47.3475 6.58227C47.2923 6.52525 47.2814 6.53833 47.3165 6.54429L47.4802 5.57887ZM63.1256 43.556C63.2151 43.5859 63.2749 43.5677 63.263 43.5705C63.2584 43.5715 63.2331 43.5789 63.182 43.6033C63.0804 43.652 62.9385 43.7383 62.7566 43.8637C62.3951 44.1129 61.9452 44.4674 61.4574 44.8504C60.9771 45.2274 60.4641 45.6287 59.9982 45.9502C59.7649 46.1113 59.5357 46.2578 59.3222 46.3734C59.1145 46.4858 58.8938 46.5846 58.6825 46.628L58.4856 45.6688C58.5576 45.654 58.6792 45.608 58.856 45.5123C59.0267 45.4199 59.224 45.2949 59.442 45.1444C59.8787 44.8429 60.3679 44.4608 60.8528 44.0801C61.3301 43.7055 61.8083 43.3281 62.2009 43.0575C62.3961 42.9229 62.5878 42.8022 62.7591 42.7202C62.8446 42.6792 62.9406 42.6403 63.0401 42.617C63.1323 42.5954 63.2789 42.5748 63.4358 42.6273L63.1256 43.556ZM58.6825 46.628C58.4794 46.6696 58.2193 46.6735 57.9523 46.6627C57.6753 46.6516 57.3518 46.6227 57.0042 46.5829C56.3086 46.5034 55.4899 46.3774 54.7033 46.2505C53.911 46.1226 53.1563 45.9947 52.5688 45.9072C52.2752 45.8635 52.0332 45.8314 51.8557 45.8148C51.7663 45.8064 51.7021 45.8028 51.6601 45.8025C51.5932 45.8021 51.6354 45.8109 51.7074 45.7831L51.3545 44.8697C51.4761 44.8227 51.6079 44.823 51.666 44.8234C51.749 44.8239 51.8453 44.8303 51.947 44.8398C52.152 44.859 52.4154 44.8944 52.713 44.9387C53.3081 45.0273 54.0795 45.158 54.8593 45.2838C55.6448 45.4106 56.4442 45.5333 57.1154 45.6101C57.4511 45.6485 57.7482 45.6745 57.9917 45.6843C58.2451 45.6945 58.4055 45.6852 58.4856 45.6688L58.6825 46.628Z" fill="black"/>
<mask id="path-3-outside-1_1857_944" maskUnits="userSpaceOnUse" x="20.5533" y="19.6199" width="36" height="18" fill="black">
<rect fill="white" x="20.5533" y="19.6199" width="36" height="18"/>
<path d="M22.0224 21.2199H29.1504L34.1884 32.5719L38.4124 21.2199H40.1064L34.2984 36.6199H28.8424L22.0224 21.2199ZM50.6473 26.7419C52.3926 27.2112 53.698 27.8345 54.5633 28.6119C55.4286 29.3745 55.8613 30.3719 55.8613 31.6039C55.8613 32.5865 55.5533 33.4665 54.9373 34.2439C54.3213 35.0212 53.412 35.6299 52.2093 36.0699C51.0213 36.5099 49.5766 36.7299 47.8753 36.7299C45.866 36.7299 44.0913 36.4732 42.5513 35.9599C41.026 35.4319 39.8306 34.7939 38.9653 34.0459L39.6913 33.0559C40.454 33.6572 41.4146 34.1705 42.5733 34.5959C43.732 35.0212 44.9786 35.2339 46.3133 35.2339C47.1786 35.2339 47.8313 35.1092 48.2713 34.8599C48.726 34.6105 48.9533 34.2585 48.9533 33.8039C48.9533 33.0119 48.1686 32.3959 46.5993 31.9559L43.7393 31.1199C42.1846 30.6505 40.982 29.9979 40.1313 29.1619C39.2953 28.3259 38.8773 27.3359 38.8773 26.1919C38.8773 25.2385 39.178 24.3732 39.7793 23.5959C40.3806 22.8185 41.2533 22.2099 42.3973 21.7699C43.556 21.3152 44.942 21.0879 46.5553 21.0879C48.0953 21.0879 49.5106 21.2639 50.8013 21.6159C52.1066 21.9679 53.17 22.3932 53.9913 22.8919L53.2653 23.9039C52.576 23.5079 51.7473 23.1705 50.7793 22.8919C49.826 22.6132 48.8213 22.4739 47.7653 22.4739C46.8413 22.4739 46.13 22.6205 45.6313 22.9139C45.1473 23.1925 44.9053 23.5812 44.9053 24.0799C44.9053 24.4612 45.0886 24.7985 45.4553 25.0919C45.822 25.3705 46.5186 25.6492 47.5453 25.9279L50.6473 26.7419Z"/>
</mask>
<path d="M22.0224 21.2199H29.1504L34.1884 32.5719L38.4124 21.2199H40.1064L34.2984 36.6199H28.8424L22.0224 21.2199ZM50.6473 26.7419C52.3926 27.2112 53.698 27.8345 54.5633 28.6119C55.4286 29.3745 55.8613 30.3719 55.8613 31.6039C55.8613 32.5865 55.5533 33.4665 54.9373 34.2439C54.3213 35.0212 53.412 35.6299 52.2093 36.0699C51.0213 36.5099 49.5766 36.7299 47.8753 36.7299C45.866 36.7299 44.0913 36.4732 42.5513 35.9599C41.026 35.4319 39.8306 34.7939 38.9653 34.0459L39.6913 33.0559C40.454 33.6572 41.4146 34.1705 42.5733 34.5959C43.732 35.0212 44.9786 35.2339 46.3133 35.2339C47.1786 35.2339 47.8313 35.1092 48.2713 34.8599C48.726 34.6105 48.9533 34.2585 48.9533 33.8039C48.9533 33.0119 48.1686 32.3959 46.5993 31.9559L43.7393 31.1199C42.1846 30.6505 40.982 29.9979 40.1313 29.1619C39.2953 28.3259 38.8773 27.3359 38.8773 26.1919C38.8773 25.2385 39.178 24.3732 39.7793 23.5959C40.3806 22.8185 41.2533 22.2099 42.3973 21.7699C43.556 21.3152 44.942 21.0879 46.5553 21.0879C48.0953 21.0879 49.5106 21.2639 50.8013 21.6159C52.1066 21.9679 53.17 22.3932 53.9913 22.8919L53.2653 23.9039C52.576 23.5079 51.7473 23.1705 50.7793 22.8919C49.826 22.6132 48.8213 22.4739 47.7653 22.4739C46.8413 22.4739 46.13 22.6205 45.6313 22.9139C45.1473 23.1925 44.9053 23.5812 44.9053 24.0799C44.9053 24.4612 45.0886 24.7985 45.4553 25.0919C45.822 25.3705 46.5186 25.6492 47.5453 25.9279L50.6473 26.7419Z" fill="#1F2433"/>
<path d="M22.0224 21.2199V20.5986H21.0678L21.4544 21.4714L22.0224 21.2199ZM29.1504 21.2199L29.7182 20.9679L29.5544 20.5986H29.1504V21.2199ZM34.1884 32.5719L33.6206 32.8239L34.239 34.2174L34.7706 32.7885L34.1884 32.5719ZM38.4124 21.2199V20.5986H37.9807L37.8302 21.0032L38.4124 21.2199ZM40.1064 21.2199L40.6877 21.4391L41.0047 20.5986H40.1064V21.2199ZM34.2984 36.6199V37.2411H34.7281L34.8797 36.8391L34.2984 36.6199ZM28.8424 36.6199L28.2744 36.8714L28.4381 37.2411H28.8424V36.6199ZM22.0224 21.8411H29.1504V20.5986H22.0224V21.8411ZM28.5826 21.4719L33.6206 32.8239L34.7562 32.3199L29.7182 20.9679L28.5826 21.4719ZM34.7706 32.7885L38.9946 21.4365L37.8302 21.0032L33.6061 32.3552L34.7706 32.7885ZM38.4124 21.8411H40.1064V20.5986H38.4124V21.8411ZM39.5251 21.0006L33.7171 36.4006L34.8797 36.8391L40.6877 21.4391L39.5251 21.0006ZM34.2984 35.9986H28.8424V37.2411H34.2984V35.9986ZM29.4104 36.3683L22.5904 20.9683L21.4544 21.4714L28.2744 36.8714L29.4104 36.3683ZM50.6473 26.7419L50.8086 26.1419L50.805 26.141L50.6473 26.7419ZM54.5633 28.6119L54.1481 29.0741L54.1525 29.0779L54.5633 28.6119ZM54.9373 34.2439L55.4242 34.6297L54.9373 34.2439ZM52.2093 36.0699L51.9959 35.4864L51.9935 35.4873L52.2093 36.0699ZM42.5513 35.9599L42.3481 36.547L42.3549 36.5492L42.5513 35.9599ZM38.9653 34.0459L38.4643 33.6785L38.1253 34.1409L38.559 34.5159L38.9653 34.0459ZM39.6913 33.0559L40.076 32.568L39.5708 32.1697L39.1903 32.6885L39.6913 33.0559ZM42.5733 34.5959L42.7874 34.0127L42.5733 34.5959ZM48.2713 34.8599L47.9726 34.3151L47.965 34.3194L48.2713 34.8599ZM46.5993 31.9559L46.425 32.5522L46.4316 32.5541L46.5993 31.9559ZM43.7393 31.1199L43.5598 31.7146L43.565 31.7162L43.7393 31.1199ZM40.1313 29.1619L39.692 29.6012L39.6959 29.605L40.1313 29.1619ZM39.7793 23.5959L40.2707 23.976L39.7793 23.5959ZM42.3973 21.7699L42.6203 22.3497L42.6242 22.3482L42.3973 21.7699ZM50.8013 21.6159L50.6379 22.2152L50.6396 22.2157L50.8013 21.6159ZM53.9913 22.8919L54.4961 23.254L54.8871 22.709L54.3137 22.3608L53.9913 22.8919ZM53.2653 23.9039L52.9559 24.4426L53.4428 24.7223L53.7701 24.266L53.2653 23.9039ZM50.7793 22.8919L50.605 23.4882L50.6075 23.4889L50.7793 22.8919ZM45.6313 22.9139L45.9413 23.4523L45.9463 23.4493L45.6313 22.9139ZM45.4553 25.0919L45.0672 25.577L45.0733 25.5818L45.0794 25.5865L45.4553 25.0919ZM47.5453 25.9279L47.3826 26.5274L47.3876 26.5288L47.5453 25.9279ZM50.486 27.3418C52.1842 27.7985 53.3847 28.3882 54.1482 29.074L54.9785 28.1497C54.0113 27.2809 52.6011 26.6239 50.8086 26.1419L50.486 27.3418ZM54.1525 29.0779C54.8741 29.7139 55.2401 30.5365 55.2401 31.6039H56.4826C56.4826 30.2072 55.9832 29.0352 54.9741 28.1458L54.1525 29.0779ZM55.2401 31.6039C55.2401 32.445 54.9803 33.1894 54.4504 33.858L55.4242 34.6297C56.1263 33.7437 56.4826 32.728 56.4826 31.6039H55.2401ZM54.4504 33.858C53.9235 34.5229 53.1217 35.0746 51.9959 35.4864L52.4228 36.6533C53.7023 36.1852 54.7191 35.5195 55.4242 34.6297L54.4504 33.858ZM51.9935 35.4873C50.8938 35.8946 49.5267 36.1086 47.8753 36.1086V37.3511C49.6266 37.3511 51.1488 37.1251 52.4251 36.6524L51.9935 35.4873ZM47.8753 36.1086C45.9175 36.1086 44.2114 35.8584 42.7478 35.3705L42.3549 36.5492C43.9712 37.088 45.8144 37.3511 47.8753 37.3511V36.1086ZM42.7545 35.3728C41.2754 34.8608 40.1582 34.2558 39.3716 33.5759L38.559 34.5159C39.5031 35.3319 40.7766 36.003 42.3481 36.5469L42.7545 35.3728ZM39.4663 34.4133L40.1923 33.4233L39.1903 32.6885L38.4643 33.6785L39.4663 34.4133ZM39.3067 33.5437C40.1326 34.1949 41.1549 34.737 42.3592 35.1791L42.7874 34.0127C41.6744 33.6041 40.7754 33.1195 40.076 32.568L39.3067 33.5437ZM42.3592 35.1791C43.5918 35.6315 44.9116 35.8551 46.3133 35.8551V34.6126C45.0457 34.6126 43.8721 34.4109 42.7874 34.0127L42.3592 35.1791ZM46.3133 35.8551C47.2192 35.8551 47.9995 35.7279 48.5776 35.4004L47.965 34.3194C47.6631 34.4905 47.1381 34.6126 46.3133 34.6126V35.8551ZM48.57 35.4046C49.1897 35.0647 49.5746 34.5215 49.5746 33.8039H48.3321C48.3321 33.9955 48.2622 34.1563 47.9726 34.3152L48.57 35.4046ZM49.5746 33.8039C49.5746 33.1687 49.2481 32.6514 48.7484 32.2592C48.2641 31.879 47.5867 31.5875 46.767 31.3577L46.4316 32.5541C47.1813 32.7642 47.6809 33.0007 47.9812 33.2365C48.2662 33.4603 48.3321 33.647 48.3321 33.8039H49.5746ZM46.7736 31.3596L43.9136 30.5236L43.565 31.7162L46.425 32.5522L46.7736 31.3596ZM43.9189 30.5251C42.4273 30.0749 41.3245 29.4634 40.5668 28.7188L39.6959 29.605C40.6395 30.5323 41.942 31.2262 43.5598 31.7146L43.9189 30.5251ZM40.5706 28.7226C39.8468 27.9987 39.4986 27.165 39.4986 26.1919H38.2561C38.2561 27.5067 38.7439 28.653 39.692 29.6012L40.5706 28.7226ZM39.4986 26.1919C39.4986 25.3806 39.7507 24.6481 40.2707 23.976L39.2879 23.2158C38.6052 24.0983 38.2561 25.0964 38.2561 26.1919H39.4986ZM40.2707 23.976C40.7872 23.3083 41.5563 22.7589 42.6203 22.3497L42.1743 21.19C40.9503 21.6608 39.9741 22.3288 39.2879 23.2158L40.2707 23.976ZM42.6242 22.3482C43.6927 21.9289 44.9978 21.7091 46.5553 21.7091V20.4666C44.8862 20.4666 43.4193 20.7015 42.1704 21.1916L42.6242 22.3482ZM46.5553 21.7091C48.0482 21.7091 49.4078 21.8798 50.6379 22.2152L50.9648 21.0165C49.6135 20.648 48.1424 20.4666 46.5553 20.4666V21.7091ZM50.6396 22.2157C51.9094 22.5581 52.9133 22.9642 53.6689 23.4229L54.3137 22.3608C53.4266 21.8222 52.3039 21.3776 50.9631 21.0161L50.6396 22.2157ZM53.4865 22.5297L52.7605 23.5417L53.7701 24.266L54.4961 23.254L53.4865 22.5297ZM53.5748 23.3652C52.8324 22.9387 51.9551 22.5839 50.9512 22.2949L50.6075 23.4889C51.5395 23.7572 52.3196 24.077 52.9559 24.4426L53.5748 23.3652ZM50.9536 22.2956C49.9402 21.9993 48.8766 21.8526 47.7653 21.8526V23.0951C48.7661 23.0951 49.7118 23.2271 50.605 23.4882L50.9536 22.2956ZM47.7653 21.8526C46.7904 21.8526 45.9514 22.0048 45.3163 22.3784L45.9463 23.4493C46.3086 23.2362 46.8923 23.0951 47.7653 23.0951V21.8526ZM45.3213 22.3755C44.6726 22.749 44.2841 23.3286 44.2841 24.0799H45.5266C45.5266 23.8338 45.622 23.6361 45.9413 23.4523L45.3213 22.3755ZM44.2841 24.0799C44.2841 24.6933 44.5908 25.1958 45.0672 25.577L45.8434 24.6068C45.5865 24.4013 45.5266 24.2291 45.5266 24.0799H44.2841ZM45.0794 25.5865C45.5512 25.945 46.3537 26.2482 47.3826 26.5274L47.7081 25.3283C46.6836 25.0502 46.0928 24.7961 45.8312 24.5973L45.0794 25.5865ZM47.3876 26.5288L50.4896 27.3428L50.805 26.141L47.703 25.327L47.3876 26.5288Z" fill="#497CFF" mask="url(#path-3-outside-1_1857_944)"/>
</svg>
