<svg width="48" height="37" viewBox="0 0 48 37" fill="none" xmlns="http://www.w3.org/2000/svg">
<path d="M41.2349 22.608C41.3629 23.9947 41.1816 25.2107 40.6909 26.256C40.2216 27.28 39.5496 28.1227 38.6749 28.784C37.8216 29.4453 36.8189 29.9253 35.6669 30.224C34.5362 30.5227 33.3629 30.6293 32.1469 30.544C30.9309 30.48 29.7362 30.224 28.5629 29.776C27.4109 29.3067 26.3762 28.656 25.4589 27.824C25.3096 27.696 25.2349 27.4613 25.2349 27.12C25.2562 26.7787 25.3202 26.4053 25.4269 26C25.5549 25.5733 25.7042 25.1467 25.8749 24.72C26.0669 24.2933 26.2696 23.92 26.4829 23.6C26.6962 23.28 26.8989 23.0453 27.0909 22.896C27.3042 22.7253 27.4749 22.704 27.6029 22.832C27.8802 23.088 28.2322 23.3333 28.6589 23.568C29.0856 23.8027 29.5442 24.0053 30.0349 24.176C30.5256 24.3467 31.0162 24.4747 31.5069 24.56C32.0189 24.6453 32.4882 24.656 32.9149 24.592C33.5976 24.4853 34.0882 24.2293 34.3869 23.824C34.6856 23.4187 34.7069 22.9387 34.4509 22.384C34.3229 22.1067 34.0349 21.936 33.5869 21.872C33.1389 21.808 32.5949 21.7653 31.9549 21.744C31.3362 21.7013 30.6642 21.6267 29.9389 21.52C29.2349 21.4133 28.5629 21.1893 27.9229 20.848C27.2829 20.5067 26.7069 20.0053 26.1949 19.344C25.7042 18.6613 25.3629 17.7333 25.1709 16.56C24.9362 15.152 25.0642 13.8187 25.5549 12.56C26.0669 11.28 26.8349 10.16 27.8589 9.2C28.9042 8.21867 30.1629 7.44 31.6349 6.864C33.1282 6.288 34.7389 6 36.4669 6C37.1496 6 37.7789 6.07467 38.3549 6.224C38.9309 6.352 39.4109 6.544 39.7949 6.8C40.1789 7.056 40.4349 7.36533 40.5629 7.728C40.7122 8.09067 40.7016 8.48533 40.5309 8.912C40.3176 9.424 40.1896 10 40.1469 10.64C40.1256 11.2587 40.2536 11.984 40.5309 12.816C40.6162 13.0933 40.5416 13.3387 40.3069 13.552C40.0722 13.7653 39.7416 13.9467 39.3149 14.096C38.9096 14.2453 38.4402 14.3627 37.9069 14.448C37.3736 14.5333 36.8509 14.576 36.3389 14.576C35.8482 14.5547 35.4002 14.4907 34.9949 14.384C34.6109 14.2773 34.3442 14.1173 34.1949 13.904C34.0882 13.7547 34.0562 13.5627 34.0989 13.328C34.1629 13.0933 34.2482 12.8587 34.3549 12.624C34.4616 12.368 34.5896 12.1333 34.7389 11.92C34.8882 11.7067 35.0056 11.5467 35.0909 11.44C35.2402 11.248 35.2189 11.1093 35.0269 11.024C34.8562 10.9387 34.6536 10.9387 34.4189 11.024C33.8429 11.2373 33.3309 11.536 32.8829 11.92C32.4562 12.304 32.1149 12.7413 31.8589 13.232C31.6029 13.7227 31.4536 14.2347 31.4109 14.768C31.3682 15.3013 31.4536 15.8133 31.6669 16.304C31.8376 16.688 32.1682 16.944 32.6589 17.072C33.1709 17.2 33.7576 17.296 34.4189 17.36C35.1016 17.4027 35.8162 17.4773 36.5629 17.584C37.3309 17.6907 38.0349 17.9147 38.6749 18.256C39.3362 18.576 39.9016 19.0773 40.3709 19.76C40.8402 20.4427 41.1282 21.392 41.2349 22.608Z" fill="#2BDA74"/>
<path d="M13.9767 11.3121C14.062 11.2054 14.126 11.1734 14.1687 11.2161C14.2327 11.2374 14.2647 11.3121 14.2647 11.4401C14.3073 12.4001 14.3607 13.3707 14.4247 14.3521C14.51 15.3334 14.606 16.3467 14.7127 17.3921C14.8407 18.4161 15.0007 19.4934 15.1927 20.6241C15.406 21.7547 15.662 22.9601 15.9607 24.2401C16.6433 21.3174 17.038 18.5014 17.1447 15.7921C17.2513 13.0614 16.9527 10.3201 16.2487 7.56806C16.1633 7.22672 16.27 6.90672 16.5687 6.60806C16.8673 6.30939 17.2513 6.22406 17.7207 6.35206C19.4273 6.80006 21.198 6.80006 23.0327 6.35206C23.6087 6.20272 23.9607 6.33072 24.0887 6.73606C24.2167 7.14139 24.238 7.70672 24.1527 8.43206C23.6193 13.2534 23.0433 17.2961 22.4247 20.5601C21.806 23.8241 21.0913 26.4267 20.2807 28.3681C20.0247 28.9867 19.7793 29.5094 19.5447 29.9361C19.3313 30.3414 19.0007 30.4801 18.5527 30.3521C18.1473 30.2241 17.774 30.1601 17.4327 30.1601C17.1127 30.1601 16.8247 30.1814 16.5687 30.2241C16.3127 30.2667 16.078 30.3094 15.8647 30.3521C15.6727 30.4161 15.4913 30.4374 15.3207 30.4161C14.9793 30.3947 14.6807 30.3521 14.4247 30.2881C14.1687 30.2027 13.9127 30.1494 13.6567 30.1281C13.422 30.0854 13.1553 30.0747 12.8567 30.0961C12.5793 30.1174 12.2167 30.2027 11.7687 30.3521C11.3207 30.5014 10.926 30.3734 10.5847 29.9681C10.2433 29.5627 10.062 29.0294 10.0407 28.3681C9.97667 26.5974 9.838 24.9014 9.62467 23.2801C9.41133 21.6374 9.134 20.0161 8.79267 18.4161C8.45133 16.7947 8.05667 15.1734 7.60867 13.5521C7.16067 11.9094 6.68067 10.2027 6.16867 8.43206C5.95533 7.74939 5.94467 7.19472 6.13667 6.76806C6.32867 6.34139 6.71267 6.20272 7.28867 6.35206C8.206 6.58672 9.18733 6.70406 10.2327 6.70406C11.2993 6.70406 12.2593 6.58672 13.1127 6.35206C13.582 6.22406 13.934 6.30939 14.1687 6.60806C14.4033 6.88539 14.542 7.20539 14.5847 7.56806C14.6273 7.90939 14.5847 8.28272 14.4567 8.68806C14.3287 9.07206 14.158 9.45606 13.9447 9.84006C13.7527 10.2241 13.518 10.5761 13.2407 10.8961C12.9633 11.1947 12.686 11.4401 12.4087 11.6321C12.238 11.7601 12.206 11.9201 12.3127 12.1121C12.4407 12.3041 12.622 12.3467 12.8567 12.2401C13.07 12.1334 13.262 11.9947 13.4327 11.8241C13.6247 11.6534 13.806 11.4827 13.9767 11.3121Z" fill="#2BDA74"/>
<path fill-rule="evenodd" clip-rule="evenodd" d="M34.5939 23.391C34.5561 23.5437 34.4871 23.6881 34.387 23.824C34.1327 24.1691 33.7392 24.4059 33.2066 24.5345C33.1501 24.5482 33.092 24.5606 33.0324 24.5718C32.9939 24.5791 32.9548 24.5858 32.915 24.592C32.8004 24.6092 32.6828 24.621 32.5622 24.6274C32.5277 24.6292 32.4931 24.6306 32.4581 24.6316C32.2662 24.6368 32.0666 24.6289 31.8595 24.6077C31.826 24.6042 31.7922 24.6004 31.7582 24.5963C31.6757 24.5863 31.5919 24.5742 31.507 24.56C31.2563 24.5164 31.0056 24.4617 30.7549 24.3958C30.7133 24.3849 30.6717 24.3736 30.6301 24.3621C30.5354 24.3358 30.4408 24.308 30.3462 24.2785C30.3192 24.2701 30.2923 24.2616 30.2653 24.253C30.1885 24.2284 30.1117 24.2027 30.035 24.176C29.878 24.1214 29.7243 24.0635 29.5739 24.0024C29.5704 24.001 29.567 23.9996 29.5635 23.9981C29.4088 23.9351 29.2577 23.8685 29.11 23.7985C29.0624 23.7759 29.0152 23.753 28.9683 23.7298C28.8634 23.6776 28.7603 23.6237 28.659 23.568C28.6562 23.5665 28.6533 23.5649 28.6505 23.5634C28.2277 23.3301 27.8785 23.0863 27.603 22.832C27.475 22.704 27.3043 22.7253 27.091 22.896C26.899 23.0453 26.6963 23.28 26.483 23.6C26.4194 23.6954 26.3567 23.7956 26.295 23.9005C26.2001 24.0617 26.1075 24.2342 26.0171 24.4179C26.0099 24.4324 26.0028 24.447 25.9957 24.4616C25.9598 24.5355 25.9243 24.6112 25.8891 24.6886C25.8844 24.6991 25.8797 24.7095 25.875 24.72C25.7043 25.1467 25.555 25.5733 25.427 26C25.4022 26.0941 25.3798 26.1864 25.3596 26.277C25.2929 26.5769 25.2513 26.8579 25.235 27.12C25.235 27.4613 25.3096 27.696 25.459 27.824C25.6495 27.9968 25.8452 28.1619 26.0459 28.3191C26.2075 28.4457 26.3724 28.5672 26.5406 28.6836C27.0471 29.0342 27.5833 29.3388 28.1493 29.5974C28.2854 29.6596 28.4233 29.7191 28.563 29.776C29.203 30.0204 29.8494 30.2076 30.5021 30.3377C30.5156 30.3404 30.5292 30.3431 30.5427 30.3458C31.0732 30.4496 31.608 30.5156 32.147 30.544C32.6417 30.5787 33.1294 30.5817 33.6101 30.5528C34.3107 30.5107 34.9963 30.4011 35.667 30.224C36.819 29.9253 37.8216 29.4453 38.675 28.784C39.5496 28.1227 40.2216 27.28 40.691 26.256C41.1816 25.2107 41.363 23.9947 41.235 22.608C41.1406 21.5322 40.9043 20.6652 40.5261 20.0068C40.4768 19.921 40.4251 19.8387 40.371 19.76C39.985 19.1986 39.5341 18.7598 39.0182 18.4437C38.9068 18.3754 38.7924 18.3128 38.675 18.256C38.6178 18.2255 38.5602 18.196 38.5021 18.1674C37.9088 17.8756 37.2624 17.6811 36.563 17.584C36.488 17.5733 36.4133 17.5629 36.339 17.5528C36.296 17.547 36.2531 17.5413 36.2103 17.5357C35.5905 17.4545 34.9934 17.3959 34.419 17.36C34.3567 17.354 34.2951 17.3477 34.2342 17.3411C34.2286 17.3405 34.2229 17.3399 34.2173 17.3392C34.2033 17.3377 34.1893 17.3362 34.1754 17.3346C33.6127 17.2716 33.1072 17.1841 32.659 17.072C32.5225 17.0364 32.3983 16.9909 32.2866 16.9354C32.227 16.9059 32.171 16.8736 32.1185 16.8384C31.9153 16.7024 31.7648 16.5242 31.667 16.304C31.6044 16.1602 31.5529 16.0146 31.5124 15.8672C31.5088 15.854 31.5052 15.8408 31.5018 15.8277C31.499 15.8168 31.4962 15.8059 31.4935 15.795C31.4832 15.754 31.4738 15.7128 31.4653 15.6714C31.4044 15.3774 31.3863 15.0763 31.411 14.768C31.4304 14.5248 31.4721 14.286 31.5359 14.0517C31.5975 13.8254 31.6798 13.6033 31.7827 13.3854L31.7845 13.3816C31.8083 13.3315 31.8331 13.2816 31.859 13.232C31.9091 13.1359 31.9625 13.0419 32.0192 12.9499C32.0526 12.8956 32.0872 12.842 32.123 12.7891C32.3192 12.4987 32.5499 12.2298 32.815 11.9823C32.829 11.9692 32.8431 11.9562 32.8573 11.9432C32.8658 11.9355 32.8744 11.9277 32.883 11.92C33.0554 11.7722 33.2373 11.637 33.4287 11.5145C33.4357 11.5101 33.4426 11.5057 33.4495 11.5013C33.5724 11.4235 33.6991 11.3509 33.8297 11.2835C33.9343 11.2295 34.0414 11.1788 34.151 11.1314C34.2387 11.0935 34.328 11.0577 34.419 11.024C34.452 11.012 34.4845 11.0016 34.5163 10.993C34.5203 10.9919 34.5243 10.9909 34.5282 10.9898C34.6899 10.9479 34.835 10.9502 34.9636 10.9968C34.9852 11.0046 35.0063 11.0137 35.027 11.024C35.2033 11.1024 35.2357 11.2258 35.124 11.3942C35.1141 11.4091 35.1031 11.4244 35.091 11.44C35.0601 11.4786 35.025 11.5242 34.9857 11.5768C34.983 11.5804 34.9803 11.5841 34.9776 11.5877C34.9155 11.6711 34.8433 11.7714 34.7609 11.8887C34.7562 11.8954 34.7515 11.9021 34.7467 11.9089C34.7454 11.9108 34.7441 11.9127 34.7428 11.9145C34.7415 11.9164 34.7402 11.9182 34.739 11.92C34.7106 11.9605 34.683 12.0019 34.6561 12.044C34.619 12.1022 34.5833 12.1619 34.5491 12.2231C34.478 12.3503 34.4133 12.484 34.355 12.624C34.3431 12.65 34.3316 12.676 34.3203 12.7021C34.2359 12.8962 34.1662 13.0904 34.1111 13.2845C34.1069 13.299 34.1029 13.3135 34.099 13.328C34.0984 13.331 34.0979 13.3339 34.0974 13.3368C34.0571 13.5675 34.0896 13.7565 34.195 13.904C34.2885 14.0377 34.4281 14.1504 34.6138 14.2422C34.6421 14.2562 34.6715 14.2696 34.7019 14.2827C34.7065 14.2846 34.7112 14.2866 34.7159 14.2886C34.8007 14.324 34.8939 14.3559 34.995 14.384C35.0398 14.3958 35.0851 14.4071 35.131 14.4178C35.1681 14.4265 35.2056 14.4349 35.2435 14.4429C35.3284 14.4609 35.4151 14.4772 35.5035 14.4918C35.5628 14.5016 35.6229 14.5106 35.6837 14.5188C35.6858 14.5191 35.688 14.5193 35.6901 14.5196C35.6983 14.5207 35.7066 14.5218 35.7148 14.5229C35.7274 14.5245 35.7399 14.5261 35.7525 14.5277C35.9407 14.5511 36.1362 14.5672 36.339 14.576C36.5521 14.576 36.767 14.5686 36.9838 14.5538C36.9879 14.5535 36.9919 14.5533 36.996 14.553C37.1146 14.5448 37.2339 14.5343 37.3536 14.5216C37.5368 14.5023 37.7212 14.4777 37.907 14.448C37.9692 14.438 38.0307 14.4276 38.0912 14.4168C38.1409 14.4079 38.19 14.3987 38.2385 14.3892C38.2458 14.3878 38.253 14.3864 38.2603 14.3849C38.3326 14.3706 38.4036 14.3556 38.4733 14.34C38.5368 14.3257 38.5992 14.311 38.6605 14.2956C38.6862 14.2892 38.7118 14.2826 38.7372 14.276C38.8146 14.2557 38.8902 14.2346 38.964 14.2126C39.0859 14.1762 39.2029 14.1373 39.315 14.096C39.616 13.9906 39.8692 13.8694 40.0746 13.7322C40.1604 13.6749 40.2378 13.6148 40.307 13.552C40.5416 13.3387 40.6163 13.0933 40.531 12.816C40.4899 12.6927 40.452 12.5718 40.4175 12.4532C40.219 11.7714 40.1288 11.167 40.147 10.64C40.1896 10 40.3176 9.424 40.531 8.912C40.5706 8.81296 40.6016 8.71563 40.6239 8.62004C40.698 8.30382 40.6776 8.00648 40.563 7.728C40.435 7.36533 40.179 7.056 39.795 6.8C39.5114 6.61098 39.1756 6.45686 38.7874 6.33762C38.6498 6.29537 38.5057 6.25749 38.355 6.224C38.0843 6.15382 37.8018 6.10013 37.5075 6.06293C37.4209 6.05198 37.3332 6.04246 37.2446 6.03437C36.9936 6.01146 36.7343 6 36.467 6C35.1682 6 33.9357 6.16269 32.7695 6.48807C32.7603 6.49065 32.7511 6.49323 32.7419 6.49582C32.366 6.60162 31.997 6.72435 31.635 6.864C30.8564 7.16864 30.1376 7.52998 29.4784 7.948C29.4423 7.97092 29.4063 7.99401 29.3705 8.01727C28.825 8.3719 28.3211 8.76614 27.859 9.2C27.418 9.61339 27.0245 10.0564 26.6785 10.5292C26.4637 10.8227 26.2672 11.1276 26.0889 11.444C25.8876 11.8014 25.7096 12.1734 25.555 12.56C25.0643 13.8187 24.9363 15.152 25.171 16.56C25.2027 16.7541 25.2386 16.9414 25.2785 17.1221C25.48 18.0336 25.7854 18.7742 26.195 19.344C26.4914 19.7269 26.8093 20.0562 27.1486 20.3318C27.3954 20.5322 27.6535 20.7043 27.923 20.848C28.2666 21.0313 28.6194 21.1807 28.9814 21.2963C28.9915 21.2995 29.0016 21.3027 29.0117 21.3059C29.0416 21.3153 29.0716 21.3244 29.1016 21.3333C29.3301 21.4012 29.5622 21.4558 29.798 21.497C29.8448 21.5052 29.8918 21.5129 29.939 21.52C30.2756 21.5695 30.6007 21.6121 30.9143 21.6478C31.0971 21.6686 31.2759 21.6871 31.4508 21.7032C31.4672 21.7048 31.4837 21.7063 31.5 21.7077C31.5057 21.7082 31.5113 21.7087 31.5169 21.7092C31.6658 21.7225 31.8118 21.7341 31.955 21.744C31.962 21.7442 31.9691 21.7445 31.9762 21.7447C31.9829 21.7449 31.9897 21.7452 31.9965 21.7454C32.162 21.7512 32.321 21.7585 32.4736 21.7671C32.4795 21.7675 32.4855 21.7678 32.4914 21.7682C32.9047 21.7921 33.2699 21.8267 33.587 21.872C33.7325 21.8928 33.8612 21.9249 33.973 21.9682C34.0283 21.9896 34.0794 22.0138 34.1264 22.0407C34.2769 22.1269 34.3851 22.2413 34.451 22.384C34.6211 22.7526 34.6687 23.0883 34.5939 23.391ZM30.6445 24.1408L31.6545 23.6747L30.6445 24.1408ZM31.6545 23.6747L31.5299 24.4226L31.6545 23.6747ZM32.6959 23.1901L32.6965 23.1938L32.6959 23.1901ZM32.7023 23.1911L32.6965 23.1938L32.7023 23.1911ZM31.9476 22.0265L32.5878 22.4983L31.9476 22.0265ZM22.0704 28.6836C22.2638 28.3085 20.0733 28.8691 20.2807 28.368C20.4433 27.9786 20.6021 27.5626 20.7569 27.12C20.7885 27.0298 20.8199 26.9384 20.8512 26.846C21.05 26.258 21.2423 25.6252 21.4281 24.9477C21.4405 24.9025 21.4529 24.8571 21.4652 24.8115C21.5823 24.3786 21.6968 23.9278 21.8088 23.4591C21.8351 23.3487 21.8613 23.2373 21.8874 23.125C21.9013 23.065 21.9151 23.0048 21.929 22.9443C21.9562 22.8253 21.9832 22.7051 22.0101 22.5839C22.0303 22.4927 22.0504 22.4009 22.0704 22.3085C22.1719 21.8404 22.271 21.3565 22.3679 20.8566C22.3869 20.7584 22.4059 20.6595 22.4247 20.56C22.5355 19.9755 22.6449 19.366 22.753 18.7315C22.8526 18.1468 22.951 17.5409 23.0482 16.9138M22.0704 28.6836C22.3882 29.5468 20.5404 31.4811 21.4658 32.3024C22.8958 33.5915 24.5163 34.6062 26.2992 35.3326L26.3607 35.3576L26.4227 35.3813C28.1456 36.0391 29.9374 36.4304 31.7793 36.5329C33.6016 36.6554 35.4138 36.4951 37.1863 36.0285C39.0291 35.549 40.7733 34.7422 42.3223 33.5482C43.9895 32.2802 45.2683 30.6595 46.1343 28.78C47.1522 26.5979 47.4137 24.2878 47.2107 22.0693C47.06 20.368 46.6268 18.4066 45.4971 16.6355C45.809 16.1545 46.084 15.5958 46.279 14.955C46.7093 13.541 46.6124 12.1783 46.2656 11.0515L46.2451 10.9848L46.2231 10.9186C46.2169 10.9003 46.2112 10.8827 46.2058 10.8659C46.7519 9.34184 46.9015 7.47664 46.1689 5.58837C45.5156 3.84713 44.3324 2.61386 43.1232 1.8077C42.0129 1.06755 40.8379 0.63967 39.759 0.390117C38.6587 0.114905 37.5513 0 36.467 0C34.0597 0 31.711 0.403807 29.4757 1.26599L29.4621 1.27123L29.4486 1.27654C27.3394 2.10188 28.3346 3.2981 26.6785 4.85205M33.21 22.9568L33.4477 22.8471L33.21 22.9568Z" fill="black"/>
<path fill-rule="evenodd" clip-rule="evenodd" d="M17.0716 17.097C17.084 16.9262 17.0952 16.7557 17.1054 16.5857C17.1093 16.5194 17.1131 16.4533 17.1167 16.3871C17.1239 16.2547 17.1305 16.1225 17.1363 15.9905C17.1386 15.9407 17.1407 15.891 17.1427 15.8413C17.1434 15.8248 17.144 15.8083 17.1447 15.7919C17.1479 15.7094 17.1507 15.6269 17.1532 15.5444C17.154 15.5196 17.1547 15.4947 17.1554 15.4698C17.1573 15.4002 17.1589 15.3305 17.1603 15.2608C17.1651 15.0207 17.1667 14.7804 17.1652 14.5401C17.1651 14.5267 17.165 14.5134 17.1649 14.5001C17.1644 14.4317 17.1636 14.3633 17.1626 14.2949C17.1619 14.2544 17.1612 14.2139 17.1604 14.1735C17.1601 14.1537 17.1597 14.1339 17.1592 14.1141C17.1573 14.0269 17.155 13.9396 17.1523 13.8524C17.1368 13.3546 17.1079 12.8565 17.0656 12.3581C17.0636 12.3344 17.0616 12.3107 17.0595 12.287C17.0374 12.034 17.0118 11.7809 16.9828 11.5277C16.9794 11.4984 16.976 11.4692 16.9725 11.4399C16.969 11.4094 16.9653 11.3789 16.9616 11.3483C16.9605 11.339 16.9593 11.3296 16.9582 11.3202C16.9042 10.8783 16.8397 10.4361 16.7647 9.99364C16.76 9.96567 16.7552 9.9377 16.7503 9.90972C16.7366 9.82984 16.7224 9.74995 16.708 9.67004C16.6931 9.58772 16.6778 9.50538 16.6622 9.42304C16.6595 9.40932 16.6569 9.39559 16.6543 9.38186C16.645 9.33334 16.6356 9.28481 16.6261 9.23628C16.6001 9.10397 16.5731 8.97164 16.5452 8.83928C16.4598 8.4338 16.3656 8.02809 16.2625 7.62215C16.2579 7.60406 16.2533 7.58597 16.2487 7.56788C16.2324 7.50294 16.2231 7.43878 16.2208 7.37539C16.2207 7.37139 16.2205 7.3674 16.2205 7.3634C16.2143 7.09798 16.3304 6.84614 16.5687 6.60788C16.8547 6.32185 17.219 6.23148 17.6615 6.33677C17.667 6.33808 17.6726 6.33942 17.6781 6.34079C17.6922 6.34429 17.7064 6.34798 17.7207 6.35188C18.3877 6.52699 19.0646 6.63365 19.7512 6.67187C19.7737 6.67312 19.7961 6.6743 19.8186 6.6754C20.0513 6.68683 20.2852 6.6904 20.5202 6.68613C21.0594 6.67633 21.6045 6.6252 22.1556 6.53274C22.1615 6.53175 22.1674 6.53075 22.1733 6.52975C22.4582 6.4815 22.7446 6.42221 23.0327 6.35188C23.6087 6.20254 23.9607 6.33054 24.0887 6.73588C24.2167 7.14121 24.238 7.70654 24.1527 8.43188C24.0942 8.96041 24.0352 9.47959 23.9757 9.98942C23.9698 10.0401 23.9639 10.0907 23.958 10.1412C23.8718 10.8754 23.7846 11.5901 23.6963 12.2852C23.6936 12.3071 23.6908 12.329 23.688 12.3509C23.5041 13.7951 23.3156 15.1546 23.1224 16.4294C22.8962 17.9224 22.6636 19.2992 22.4247 20.5599C22.0733 22.4139 21.6909 24.0545 21.2775 25.4818C21.2656 25.5229 21.2537 25.5638 21.2417 25.6045C20.938 26.6399 20.6176 27.561 20.2807 28.3679C20.0247 28.9865 19.7793 29.5092 19.5447 29.9359C19.3313 30.3412 19.0007 30.4799 18.5527 30.3519C18.1473 30.2239 17.774 30.1599 17.4327 30.1599C17.1127 30.1599 16.8247 30.1812 16.5687 30.2239C16.3127 30.2665 16.078 30.3092 15.8647 30.3519C15.6727 30.4159 15.4913 30.4372 15.3207 30.4159C14.9793 30.3945 14.6807 30.3519 14.4247 30.2879C14.1687 30.2025 13.9127 30.1492 13.6567 30.1279C13.422 30.0852 13.1553 30.0745 12.8567 30.0959C12.5793 30.1172 12.2167 30.2025 11.7687 30.3519C11.3207 30.5012 10.926 30.3732 10.5847 29.9679C10.2433 29.5625 10.062 29.0292 10.0407 28.3679C9.98009 26.6919 9.85262 25.0828 9.65825 23.5406C9.64727 23.4535 9.63607 23.3666 9.62467 23.2799C9.55671 22.7566 9.48226 22.2355 9.40132 21.7166C9.39578 21.6811 9.39021 21.6456 9.38462 21.6102C9.21635 20.5437 9.02062 19.4864 8.79744 18.4383C8.79585 18.4308 8.79426 18.4233 8.79267 18.4159C8.67173 17.8414 8.5441 17.267 8.40978 16.6926C8.27722 16.1257 8.13815 15.5588 7.99256 14.9919C7.95664 14.8521 7.92033 14.7123 7.88362 14.5725C7.79432 14.2323 7.70267 13.8921 7.60867 13.5519C7.51182 13.1968 7.41348 12.8387 7.31365 12.4776C7.29541 12.4117 7.27713 12.3456 7.25879 12.2795C7.04109 11.494 6.81635 10.6945 6.58458 9.88088C6.54981 9.75883 6.51489 9.63647 6.4798 9.51379C6.4779 9.50713 6.476 9.50048 6.47409 9.49382C6.37358 9.14243 6.27177 8.78845 6.16867 8.43188C5.95533 7.74921 5.94467 7.19454 6.13667 6.76788C6.32867 6.34121 6.71267 6.20254 7.28867 6.35188C8.17209 6.57787 9.11487 6.69504 10.117 6.7034C10.1555 6.70372 10.194 6.70388 10.2327 6.70388C10.2368 6.70388 10.241 6.70388 10.2451 6.70387C10.3489 6.70378 10.4517 6.70258 10.5535 6.70027C11.4927 6.67891 12.3458 6.56278 13.1127 6.35188C13.1471 6.34249 13.1808 6.33426 13.214 6.32717C13.5589 6.25339 13.8355 6.30374 14.0438 6.47822C14.0886 6.51571 14.1302 6.55893 14.1687 6.60788C14.4033 6.88521 14.542 7.20521 14.5847 7.56788C14.6013 7.70077 14.605 7.83852 14.5957 7.98112C14.5955 7.98438 14.5953 7.98764 14.595 7.9909C14.5798 8.21164 14.5337 8.44396 14.4567 8.68788C14.346 9.01988 14.2034 9.35189 14.029 9.6839C14.0273 9.68706 14.0257 9.69022 14.024 9.69338C13.9982 9.74221 13.9718 9.79105 13.9447 9.83988C13.7871 10.1551 13.6007 10.4487 13.3856 10.7208C13.3665 10.7449 13.3472 10.7689 13.3277 10.7927C13.2992 10.8275 13.2702 10.8618 13.2407 10.8959C13.2047 10.9346 13.1687 10.9724 13.1328 11.0094C13.057 11.0872 12.9813 11.161 12.9055 11.2308C12.894 11.2414 12.8826 11.2519 12.8711 11.2623C12.8021 11.3248 12.7332 11.384 12.6642 11.4399C12.6323 11.4657 12.6005 11.4908 12.5686 11.5153C12.5583 11.5231 12.5481 11.5309 12.5379 11.5386C12.5301 11.5444 12.5224 11.5502 12.5147 11.5559C12.4793 11.5821 12.444 11.6074 12.4087 11.6319C12.238 11.7599 12.206 11.9199 12.3127 12.1119C12.3238 12.1286 12.3354 12.1442 12.3474 12.1587C12.3683 12.184 12.3904 12.2058 12.4138 12.2241C12.4194 12.2285 12.4251 12.2327 12.4309 12.2367C12.54 12.3127 12.6749 12.3169 12.8353 12.2492C12.8422 12.2463 12.8497 12.243 12.8567 12.2399C12.8586 12.2389 12.8605 12.2379 12.8625 12.237C12.9815 12.177 13.0939 12.107 13.1996 12.0271C13.2132 12.0168 13.2266 12.0064 13.2399 11.9959C13.2853 11.9598 13.3295 11.9219 13.3724 11.882C13.3928 11.8631 13.4129 11.8437 13.4327 11.8239C13.5694 11.7024 13.7007 11.5809 13.8265 11.4593C13.83 11.456 13.8334 11.4527 13.8368 11.4494C13.8401 11.4462 13.8434 11.4431 13.8467 11.4399C13.8501 11.4366 13.8535 11.4333 13.8569 11.4299C13.8974 11.3906 13.9373 11.3512 13.9767 11.3119C14.062 11.2052 14.126 11.1732 14.1687 11.2159C14.2327 11.2372 14.2647 11.3119 14.2647 11.4399C14.2662 11.4753 14.2678 11.5107 14.2694 11.5461C14.2704 11.5665 14.2713 11.587 14.2722 11.6074C14.2751 11.6707 14.278 11.7341 14.281 11.7975C14.2821 11.82 14.2832 11.8424 14.2842 11.8649C14.2899 11.9853 14.2958 12.1059 14.3019 12.2266C14.3021 12.2315 14.3024 12.2363 14.3026 12.2412C14.3106 12.4001 14.3189 12.5592 14.3275 12.7187C14.3296 12.7584 14.3318 12.7981 14.3339 12.8378C14.3607 13.3281 14.3902 13.8211 14.4224 14.3168C14.4231 14.3285 14.4239 14.3402 14.4247 14.3519C14.431 14.425 14.4374 14.4982 14.4439 14.5717C14.4738 14.9112 14.505 15.2544 14.5375 15.6015C14.5402 15.6308 14.543 15.6602 14.5457 15.6896C14.5562 15.801 14.5669 15.9137 14.5776 16.026C14.6137 16.4033 14.6512 16.7851 14.6903 17.1713C14.6977 17.2446 14.7051 17.3182 14.7127 17.3919C14.7146 17.4072 14.7165 17.4225 14.7184 17.4379C14.7387 17.5992 14.7598 17.7619 14.7817 17.9259C14.8968 18.7887 15.0337 19.688 15.1927 20.6239C15.3065 21.2272 15.4325 21.8517 15.5706 22.4975C15.5713 22.5008 15.572 22.5041 15.5727 22.5074C15.5745 22.5156 15.5762 22.5237 15.578 22.5319C15.6197 22.7265 15.6625 22.9231 15.7064 23.1215C15.7874 23.4878 15.8722 23.8605 15.9607 24.2399C16.2672 22.9274 16.5157 21.6364 16.7061 20.3669C16.7076 20.3571 16.7091 20.3473 16.7105 20.3375C16.7524 20.0569 16.7915 19.7775 16.8277 19.499C16.9306 18.7081 17.0105 17.9256 17.0676 17.1516C17.069 17.1334 17.0703 17.1152 17.0716 17.097ZM19.2564 0.551705C18.0691 0.235535 16.7186 0.190655 15.4001 0.556599C15.315 0.532433 15.229 0.509812 15.1423 0.488777C13.7009 0.139342 12.4241 0.320518 11.534 0.563293L11.5217 0.566645C11.2799 0.633139 10.8679 0.703878 10.2327 0.703878C9.63989 0.703878 9.1636 0.637845 8.78036 0.540258C7.82967 0.29559 6.2627 0.0751465 4.5308 0.700554C2.58337 1.40379 1.32162 2.84685 0.665139 4.30569C-0.359355 6.58234 0.000213563 8.77219 0.418894 10.1473C0.917814 11.8736 1.38482 13.5346 1.82008 15.1306L1.82272 15.1402L1.82538 15.1499C2.24081 16.6533 2.60601 18.154 2.92137 19.6519L2.92303 19.6598L2.92471 19.6677C3.2318 21.1072 3.48192 22.5687 3.67463 24.0526L3.67594 24.0626C3.86228 25.4788 3.98642 26.9823 4.04427 28.576C4.10042 30.2389 4.59234 32.1668 5.9952 33.8327C6.6906 34.6585 7.76249 35.5812 9.28564 36.0752C10.6926 36.5315 12.0629 36.4848 13.2388 36.1719C13.7915 36.2932 14.3266 36.36 14.8189 36.3956C15.6946 36.4745 16.5052 36.3822 17.2177 36.203C18.3364 36.4689 19.8552 36.5488 21.457 35.877C23.1929 35.1491 24.2406 33.8683 24.8198 32.7949C25.1836 32.1297 25.5155 31.4087 25.8212 30.6706C26.081 30.0477 26.3265 29.3888 26.559 28.6962C26.1753 28.4318 25.8086 28.141 25.4589 27.8239C25.3096 27.6959 25.2349 27.4612 25.2349 27.1199C25.2563 26.7785 25.3202 26.4052 25.4269 25.9999C25.5549 25.5732 25.7043 25.1465 25.8749 24.7199C26.0669 24.2932 26.2696 23.9199 26.4829 23.5999C26.6962 23.2799 26.8989 23.0452 27.0909 22.8959C27.3042 22.7252 27.4749 22.7039 27.6029 22.8319C27.7274 22.9468 27.867 23.0596 28.0216 23.1703C28.1244 22.6817 28.2237 22.1839 28.3197 21.6772C28.3563 21.484 28.3928 21.2884 28.429 21.0905C28.2582 21.0176 28.0895 20.9367 27.9229 20.8479C27.2829 20.5065 26.7069 20.0052 26.1949 19.3439C25.7043 18.6612 25.3629 17.7332 25.1709 16.5599C24.9362 15.1519 25.0642 13.8185 25.5549 12.5599C26.0669 11.2799 26.8349 10.1599 27.8589 9.19988C27.9654 9.09991 28.0741 9.00204 28.185 8.90627C28.1947 8.89789 28.2045 8.88952 28.2142 8.88116C28.8132 8.36782 29.4763 7.91538 30.2035 7.52384C30.1946 6.72915 30.0965 5.83573 29.8102 4.92909C29.2708 3.22113 27.9606 1.49038 25.7791 0.697118C24.0121 0.0545751 22.4286 0.316616 21.5855 0.528915C20.6664 0.749815 19.9218 0.724314 19.2564 0.551705Z" fill="black"/>
<path d="M13.3144 13.0839C13.3144 13.0839 12.9993 13.186 12.9596 13.2981C12.91 13.3878 12.9795 13.627 12.4039 13.9259C12.2625 14.0031 11.9772 14.1501 11.6323 14.3269C11.285 14.5038 10.8781 14.7106 10.4861 14.9049C9.70956 15.296 9 15.6522 9 15.6522C9 15.6522 9.33493 15.2561 9.70459 14.8227C10.0743 14.3892 10.4737 13.9134 10.6052 13.754C10.8706 13.4102 11.213 13.0117 11.213 13.0117C11.213 13.0117 11.3594 12.8497 11.5926 12.7601C11.8134 12.6629 12.7934 12.2195 12.8579 11.8658C12.915 11.4996 12.7984 11.3825 12.915 11.1932C13.0564 11.0139 14.2125 10.4733 14.2125 10.4733C14.2125 10.4733 14.6516 10.269 14.8402 10L16.3511 10.7946C16.3883 11.2804 16.4305 11.2605 16.2122 11.3352C16.0162 11.4099 15.4977 11.5195 15.3041 11.6441C15.123 11.7637 14.9866 11.8708 14.9419 12.0825C14.9097 12.2893 14.9295 12.4263 14.473 12.5932C14.0066 12.7576 13.3144 13.0839 13.3144 13.0839Z" fill="black"/>
<path d="M34.4251 11.2533C34.4251 11.2533 34.7187 11.0999 34.7391 10.9827C34.773 10.886 34.6645 10.6619 35.182 10.2709C35.3086 10.1712 35.5653 9.97855 35.8757 9.74653C36.1886 9.51409 36.5552 9.24222 36.9092 8.98512C37.6094 8.46971 38.2494 7.99988 38.2494 7.99988C38.2494 7.99988 37.9854 8.44638 37.6934 8.93552C37.4014 9.42466 37.0871 9.96052 36.9842 10.1397C36.7799 10.523 36.509 10.9732 36.509 10.9732C36.509 10.9732 36.3917 11.1573 36.1768 11.2847C35.9753 11.4174 35.0833 12.0184 35.0788 12.3779C35.0838 12.7485 35.2183 12.8444 35.135 13.0506C35.0255 13.2511 33.9761 13.9773 33.9761 13.9773C33.9761 13.9773 33.5773 14.2521 33.4363 14.5489L31.8138 14.018C31.6959 13.5453 32.2694 13.6102 32.4722 13.5C32.6529 13.3936 32.5341 13.1606 32.7041 13.0055C32.8626 12.8573 32.9793 12.7289 32.9879 12.5127C32.9851 12.3034 32.9427 12.1717 33.3648 11.9308C33.7972 11.6907 34.4251 11.2533 34.4251 11.2533Z" fill="black"/>
</svg>
