<svg width="18" height="18" viewBox="0 0 18 18" fill="none" xmlns="http://www.w3.org/2000/svg">
<path d="M8.16675 14.0003H9.83341V12.3337H8.16675V14.0003ZM9.00008 0.666992C4.40008 0.666992 0.666748 4.40033 0.666748 9.00033C0.666748 13.6003 4.40008 17.3337 9.00008 17.3337C13.6001 17.3337 17.3334 13.6003 17.3334 9.00033C17.3334 4.40033 13.6001 0.666992 9.00008 0.666992ZM9.00008 15.667C5.32508 15.667 2.33341 12.6753 2.33341 9.00033C2.33341 5.32533 5.32508 2.33366 9.00008 2.33366C12.6751 2.33366 15.6667 5.32533 15.6667 9.00033C15.6667 12.6753 12.6751 15.667 9.00008 15.667ZM9.00008 4.00033C7.15841 4.00033 5.66675 5.49199 5.66675 7.33366H7.33341C7.33341 6.41699 8.08341 5.66699 9.00008 5.66699C9.91675 5.66699 10.6667 6.41699 10.6667 7.33366C10.6667 9.00033 8.16675 8.79199 8.16675 11.5003H9.83341C9.83341 9.62533 12.3334 9.41699 12.3334 7.33366C12.3334 5.49199 10.8417 4.00033 9.00008 4.00033Z" fill="#8A9CB8"/>
<path d="M8.16675 14.0003H9.83341V12.3337H8.16675V14.0003ZM9.00008 0.666992C4.40008 0.666992 0.666748 4.40033 0.666748 9.00033C0.666748 13.6003 4.40008 17.3337 9.00008 17.3337C13.6001 17.3337 17.3334 13.6003 17.3334 9.00033C17.3334 4.40033 13.6001 0.666992 9.00008 0.666992ZM9.00008 15.667C5.32508 15.667 2.33341 12.6753 2.33341 9.00033C2.33341 5.32533 5.32508 2.33366 9.00008 2.33366C12.6751 2.33366 15.6667 5.32533 15.6667 9.00033C15.6667 12.6753 12.6751 15.667 9.00008 15.667ZM9.00008 4.00033C7.15841 4.00033 5.66675 5.49199 5.66675 7.33366H7.33341C7.33341 6.41699 8.08341 5.66699 9.00008 5.66699C9.91675 5.66699 10.6667 6.41699 10.6667 7.33366C10.6667 9.00033 8.16675 8.79199 8.16675 11.5003H9.83341C9.83341 9.62533 12.3334 9.41699 12.3334 7.33366C12.3334 5.49199 10.8417 4.00033 9.00008 4.00033Z" fill="url(#paint0_linear_937_153)"/>
<defs>
<linearGradient id="paint0_linear_937_153" x1="11.8336" y1="8.0744" x2="-3.5307" y2="18.9164" gradientUnits="userSpaceOnUse">
<stop stop-color="#001AFF"/>
<stop offset="1" stop-color="#4F95FF"/>
</linearGradient>
</defs>
</svg>
