<svg width="169" height="32" viewBox="0 0 169 32" fill="none" xmlns="http://www.w3.org/2000/svg">
<path d="M24.9238 10.8572V6.79955H21.4453V19.4417H23.6368V21.5443H16.7406V19.4417H18.8886V6.79955H15.41V10.8572H13.3315V4.70557H27.0023V10.8572H24.9238Z" fill="white"/>
<path fill-rule="evenodd" clip-rule="evenodd" d="M39.0031 18.8421C39.5552 17.8836 39.8376 16.7939 39.8206 15.6881C39.8248 14.6126 39.5459 13.5548 39.0119 12.621C38.4794 11.6708 37.7014 10.881 36.7591 10.3338C35.8168 9.78669 34.7447 9.50232 33.6548 9.51043C32.5365 9.49292 31.4331 9.76855 30.4546 10.3098C29.5313 10.8254 28.7719 11.5902 28.2631 12.5167C27.7245 13.4952 27.4516 14.5976 27.4717 15.7142C27.4589 16.8078 27.7317 17.886 28.2631 18.8421C28.779 19.7804 29.5431 20.5589 30.472 21.0925C31.4401 21.6469 32.5391 21.9319 33.6548 21.9179C34.7398 21.928 35.8077 21.6481 36.748 21.1073C37.6883 20.5665 38.4669 19.7845 39.0031 18.8421ZM35.5507 19.1115C34.982 19.4646 34.3244 19.6485 33.6549 19.6415C32.9853 19.6485 32.3277 19.4646 31.7591 19.1115C31.1781 18.7598 30.7056 18.2547 30.3937 17.6518C30.0687 17.0482 29.8986 16.3735 29.8986 15.6881C29.8986 15.0027 30.0687 14.328 30.3937 13.7244C30.7015 13.1243 31.1677 12.6195 31.7417 12.2647C32.3075 11.9033 32.9659 11.7132 33.6375 11.7174C34.3159 11.7123 34.9809 11.9057 35.5507 12.2735C36.1146 12.6377 36.5756 13.1403 36.8899 13.7331C37.2108 14.3345 37.3753 15.0067 37.3682 15.6881C37.3752 16.3778 37.2109 17.0585 36.8899 17.6691C36.5798 18.2603 36.1175 18.7582 35.5507 19.1115Z" fill="white"/>
<path d="M49.8131 11.7174H47.9519V9.79716H54.4654V11.7174H52.6482L48.2565 15.3666L52.4046 19.4851H54.4654V21.5443H51.4131L45.5257 15.6186V19.4851H47.5171V21.5443H41.1079V19.4851H43.2125V6.73873H41.1079V4.70557H45.5257V15.3666L49.8131 11.7174Z" fill="white"/>
<path fill-rule="evenodd" clip-rule="evenodd" d="M58.2659 16.2355H68.1188C68.1219 14.9611 67.8304 13.7032 67.2666 12.5602C66.7789 11.5881 66.0248 10.7745 65.0925 10.2142C64.1194 9.68109 63.028 9.40161 61.9183 9.40161C60.8086 9.40161 59.7169 9.68109 58.7442 10.2142C57.8141 10.7377 57.047 11.5074 56.5266 12.4385C55.9928 13.4168 55.7134 14.5132 55.7134 15.6273C55.7134 16.7414 55.9928 17.8378 56.5266 18.8161C57.0671 19.7564 57.8629 20.5245 58.8221 21.0317C59.866 21.5736 61.029 21.8455 62.2054 21.8224C63.38 21.8356 64.5416 21.5737 65.5967 21.0578C66.6334 20.5528 67.5071 19.767 68.1188 18.79L66.0839 17.9211C65.6724 18.5531 65.0987 19.0632 64.423 19.3982C63.7468 19.7206 63.0061 19.8841 62.2573 19.8761C61.2717 19.9043 60.3125 19.5527 59.5789 18.8943C58.8253 18.2021 58.3573 17.2541 58.2659 16.2355ZM59.5964 12.2474C60.2251 11.68 61.0446 11.3699 61.8924 11.3785V11.4046C62.7755 11.3874 63.6362 11.6863 64.3186 12.2474C65.0239 12.8448 65.508 13.6619 65.6925 14.5673H58.3353C58.4858 13.6754 58.9296 12.8591 59.5964 12.2474Z" fill="white"/>
<path d="M81.0675 13.6289V19.4677H83.033V21.5269H78.7456V13.7679C78.7864 13.2222 78.6784 12.6756 78.4326 12.1865C78.3153 12.0227 78.1576 11.8919 77.9745 11.8066C77.7918 11.7214 77.5902 11.6847 77.3892 11.7C76.0927 11.8071 74.8693 12.3421 73.9105 13.2205V19.4677H75.9369V21.5269H69.5537V19.4677H71.6235V11.8911H69.5537V9.82322H73.902V11.2482C75.0511 10.3 76.4747 9.7457 77.9633 9.6668C78.4008 9.63384 78.8401 9.70482 79.2454 9.87396C79.6502 10.0431 80.0093 10.3056 80.2937 10.6399C80.8642 11.5281 81.1356 12.5755 81.0675 13.6289Z" fill="white"/>
<path d="M93.7904 5.75692V4.60131H95.8517V9.71027H93.7904V8.546C93.4205 7.93343 92.8948 7.4293 92.2674 7.08452C91.64 6.73974 90.9324 6.56653 90.2164 6.58237C89.4645 6.5323 88.7171 6.72743 88.0856 7.13843C87.842 7.32704 87.6477 7.5717 87.5187 7.85157C87.3902 8.13145 87.3311 8.43824 87.3467 8.74585C87.3302 9.04006 87.3857 9.33379 87.5084 9.60171C87.6311 9.86964 87.8174 10.1037 88.0507 10.2837C88.7018 10.7071 89.4282 11.002 90.1904 11.1526L92.1729 11.6826C93.2243 11.9152 94.2145 12.3683 95.0774 13.012C95.6717 13.4546 96.1275 14.0575 96.3909 14.7498C96.6076 15.4173 96.7133 16.1159 96.7039 16.8177C96.7366 17.4902 96.626 18.162 96.3783 18.7883C96.1311 19.4146 95.7527 19.9809 95.2691 20.4496C94.2145 21.3789 92.8379 21.8591 91.434 21.7876C89.8792 21.7818 88.3857 21.1817 87.2594 20.1107V21.5096H85.0942V15.3753H87.1985V16.8611C88.2307 18.7611 89.5581 19.711 91.1814 19.711C91.9821 19.7616 92.7707 19.5 93.382 18.9812C93.6507 18.7111 93.8598 18.3872 93.9946 18.0308C94.1294 17.6745 94.1872 17.2936 94.1643 16.9133C94.1643 15.7142 93.2947 14.8714 91.6162 14.4022L89.5119 13.8114C88.2634 13.526 87.1085 12.928 86.1551 12.0736C85.7892 11.6838 85.5053 11.2246 85.3199 10.7231C85.1345 10.2216 85.0521 9.68814 85.0768 9.15421C85.0342 8.5148 85.1296 7.87372 85.3562 7.27419C85.5828 6.67466 85.9352 6.13062 86.3898 5.67873C87.3938 4.81583 88.6942 4.37654 90.0162 4.45361C91.3852 4.45169 92.7147 4.91084 93.7904 5.75692Z" fill="white"/>
<path d="M107.4 10.6487V9.77983H109.444V14.2284H107.383C107.362 13.8469 107.26 13.4743 107.083 13.1355C106.906 12.7968 106.658 12.4999 106.356 12.2648C105.759 11.8208 105.032 11.5857 104.287 11.5958C103.645 11.587 103.014 11.7717 102.478 12.1258C101.943 12.4932 101.516 12.9973 101.243 13.5855C100.951 14.211 100.803 14.8937 100.808 15.5839C100.763 16.6716 101.112 17.7391 101.791 18.5902C102.106 18.973 102.506 19.2779 102.958 19.4814C103.411 19.6848 103.904 19.7812 104.4 19.7632C105.149 19.7885 105.886 19.5793 106.51 19.1648C107.134 18.7504 107.612 18.1515 107.879 17.452L109.8 18.3643C109.35 19.4465 108.574 20.3622 107.58 20.9848C106.586 21.6075 105.423 21.9062 104.252 21.8398C103.155 21.858 102.074 21.5723 101.13 21.0144C100.233 20.467 99.504 19.6821 99.0257 18.7466C98.5242 17.7558 98.268 16.6593 98.2779 15.5491C98.264 14.4597 98.5242 13.3841 99.0342 12.4212C99.5085 11.5091 100.228 10.7476 101.113 10.2229C102 9.69246 103.018 9.41876 104.052 9.43228C105.281 9.40752 106.475 9.84123 107.4 10.6487Z" fill="white"/>
<path d="M115.531 16.8264V19.4852H118.14V21.5444H110.922V19.4852H113.279V11.8912H110.922V9.82327H115.114V12.482C115.449 11.588 116.058 10.822 116.853 10.2925C117.777 9.82287 118.81 9.60698 119.845 9.6669H120.366V12.0041H119.88C118.923 11.9474 117.967 12.1171 117.088 12.4994C116.792 12.6481 116.531 12.8572 116.321 13.1132C116.112 13.3691 115.958 13.6662 115.87 13.9852C115.628 14.9124 115.514 15.8683 115.531 16.8264Z" fill="white"/>
<path fill-rule="evenodd" clip-rule="evenodd" d="M125.53 6.37808C125.602 6.20917 125.638 6.02732 125.637 5.84381C125.641 5.65881 125.608 5.47477 125.54 5.30289C125.471 5.131 125.368 4.97486 125.237 4.844C125.106 4.71314 124.95 4.61028 124.778 4.54167C124.606 4.47306 124.422 4.44014 124.237 4.44491C124.054 4.44247 123.873 4.47834 123.705 4.55018C123.538 4.62202 123.387 4.72825 123.263 4.86198C123.132 4.98978 123.03 5.14278 122.961 5.31161C122.892 5.48045 122.859 5.66156 122.862 5.84381C122.86 6.02592 122.894 6.20671 122.963 6.3754C123.031 6.5441 123.133 6.69724 123.263 6.82564C123.387 6.95938 123.538 7.06558 123.705 7.13742C123.873 7.20926 124.054 7.24512 124.237 7.24268C124.42 7.24526 124.603 7.20952 124.772 7.13771C124.941 7.0659 125.093 6.95961 125.219 6.82564C125.353 6.69934 125.458 6.54698 125.53 6.37808ZM127.289 21.5443V19.4851L125.506 19.5112V9.82324H121.349V11.8912H123.184V19.4851H121.349V21.5443H127.289Z" fill="white"/>
<path fill-rule="evenodd" clip-rule="evenodd" d="M141.62 18.8422C142.138 17.8877 142.404 16.8173 142.394 15.7316C142.399 14.6806 142.151 13.6437 141.673 12.7079C141.212 11.8012 140.515 11.0357 139.655 10.4923C138.767 9.93743 137.737 9.65078 136.689 9.6669C135.91 9.66117 135.139 9.83354 134.437 10.1708C133.696 10.541 133.042 11.0619 132.515 11.7V9.82328H128.228V11.8912H130.193V24.7505H128.062V26.8445H134.802V24.7853H132.507V20.1195C133.032 20.6903 133.671 21.1457 134.382 21.4568C135.093 21.768 135.861 21.9279 136.637 21.9267C137.667 21.9343 138.678 21.6479 139.55 21.1013C140.429 20.546 141.144 19.766 141.62 18.8422ZM138.35 19.2245C137.845 19.5913 137.236 19.7862 136.611 19.7806C135.531 19.8215 134.477 19.4485 133.663 18.7379C133.271 18.3741 132.963 17.9289 132.762 17.4335C132.561 16.9381 132.47 16.4046 132.498 15.8707C132.491 15.1438 132.658 14.4259 132.985 13.7767C133.293 13.1607 133.758 12.6364 134.333 12.2561C134.917 11.8676 135.605 11.6646 136.307 11.674C136.976 11.6653 137.633 11.8559 138.194 12.2214C138.756 12.5787 139.212 13.0797 139.516 13.6724C139.839 14.2885 140.003 14.9753 139.994 15.6708C140 16.3721 139.851 17.0661 139.559 17.704C139.296 18.3075 138.879 18.8318 138.35 19.2245Z" fill="white"/>
<path d="M150.013 9.79716V11.8912H147.864V18.0515C147.822 18.4768 147.894 18.906 148.073 19.2939C148.158 19.3958 148.267 19.4752 148.39 19.5252C148.512 19.5752 148.646 19.5942 148.778 19.5807C149.198 19.5799 149.615 19.5094 150.013 19.3721V21.4487C149.45 21.6313 148.865 21.7365 148.273 21.7615C147.892 21.8013 147.506 21.7565 147.144 21.6304C146.782 21.5042 146.452 21.2998 146.178 21.0317C145.68 20.2936 145.456 19.4059 145.543 18.5206V11.8912H144.003V9.82323H145.543V8.08548L147.856 5.97412V9.85798L150.013 9.79716Z" fill="white"/>
<path d="M168.379 4.67078H165.831V21.5182H168.379V4.67078Z" fill="#0019FF"/>
<path d="M163.405 14.1155V15.5318L154.978 19.8761V17.6779L160.735 14.8454L154.978 12.0215V9.81458L163.405 14.1155Z" fill="white"/>
<path d="M0 15.497V14.0807L8.43544 9.73633V11.9433L2.66974 14.7671L8.43544 17.5996V19.7979L0 15.497Z" fill="white"/>
</svg>
